<?xml version="1.0" standalone="no"?>
<!DOCTYPE svg PUBLIC "-//W3C//DTD SVG 20010904//EN"
 "http://www.w3.org/TR/2001/REC-SVG-20010904/DTD/svg10.dtd">
<svg version="1.0" xmlns="http://www.w3.org/2000/svg"
 width="297.000000pt" height="297.000000pt" viewBox="0 0 297.000000 297.000000"
 preserveAspectRatio="xMidYMid meet">
<metadata>
Created by potrace 1.11, written by Peter Selinger 2001-2013
</metadata>
<g transform="translate(0.000000,297.000000) scale(0.100000,-0.100000)"
fill="#000000" stroke="none">
<path d="M0 2358 l1 -613 44 48 c67 73 90 167 52 215 -5 7 -8 14 -6 15 10 7
179 77 185 77 4 0 27 10 51 22 38 19 46 20 53 8 15 -24 7 -33 -66 -73 -38 -21
-58 -35 -44 -31 14 4 54 24 89 45 34 22 65 39 67 39 13 0 52 -90 49 -115 -1
-16 0 -20 2 -8 2 12 16 26 31 32 35 13 112 59 135 79 12 10 21 12 28 5 12 -12
-156 -117 -173 -107 -11 7 25 -59 44 -81 13 -15 9 -25 -7 -19 -10 4 -15 0 -15
-12 0 -19 -53 -60 -100 -79 -30 -12 -73 -41 -104 -71 -36 -34 -159 -116 -181
-120 -17 -3 -32 11 -69 61 -26 36 -50 65 -53 65 -8 0 26 -51 53 -81 13 -14 24
-30 24 -36 0 -6 7 -16 16 -24 12 -10 17 -10 23 0 6 9 10 9 19 -1 9 -11 6 -14
-13 -13 -13 0 -27 3 -31 8 -15 14 -26 7 -13 -10 13 -15 12 -15 -8 -2 -14 8
-18 16 -11 20 17 11 1 42 -19 35 -9 -4 -24 1 -35 11 -19 17 -20 17 -16 -12 2
-25 7 -30 28 -27 24 3 24 2 6 -13 -11 -8 -23 -15 -28 -15 -4 0 -8 -5 -8 -11 0
-5 4 -8 9 -5 5 4 38 -24 73 -60 34 -36 76 -75 91 -86 27 -19 29 -19 48 -3 10
10 19 13 19 8 0 -6 -7 -16 -15 -23 -12 -10 -21 -10 -47 1 -18 7 -37 17 -43 21
-5 5 -23 18 -38 29 -15 12 -26 24 -23 27 7 6 -53 62 -66 62 -13 0 -9 -65 4
-78 9 -9 9 -12 -1 -12 -9 0 -12 -44 -10 -197 2 -109 6 -187 9 -173 6 24 7 23
13 -9 4 -19 15 -43 24 -53 9 -10 13 -18 9 -18 -11 0 -36 27 -36 39 0 6 -5 11
-11 11 -16 0 22 -58 42 -63 10 -3 19 -1 21 3 2 5 21 -4 42 -21 22 -16 35 -29
29 -29 -6 0 -9 -9 -6 -20 4 -15 0 -20 -16 -20 -12 0 -19 4 -16 10 3 6 1 10 -5
10 -7 0 -9 -8 -5 -19 9 -30 -10 -33 -39 -6 -17 16 -22 25 -13 25 8 0 17 -7 21
-15 3 -8 11 -15 18 -15 10 0 10 2 0 9 -19 12 10 33 33 24 13 -4 16 -3 11 5 -4
7 -13 12 -20 12 -7 0 -21 9 -31 20 -10 11 -24 20 -32 20 -7 0 -16 7 -19 15
-10 24 -24 17 -22 -11 3 -31 23 -51 34 -33 5 8 3 9 -6 4 -9 -5 -11 -4 -6 3 5
9 13 9 26 2 25 -13 33 -27 15 -27 -8 0 -12 4 -9 9 3 4 0 8 -5 8 -6 0 -11 -5
-11 -11 0 -6 -9 -9 -20 -6 -26 7 -26 -9 0 -25 11 -7 20 -16 20 -21 0 -4 -4 -6
-9 -3 -15 9 -27 -17 -30 -62 l-3 -43 37 21 c32 18 35 18 26 3 -7 -14 -5 -23
11 -40 20 -21 20 -22 0 -16 -11 2 -23 0 -26 -5 -3 -6 -15 -8 -26 -5 -18 5 -20
0 -20 -36 0 -34 3 -39 18 -34 15 6 16 5 2 -11 -20 -25 -23 -171 -3 -154 7 6
11 19 8 28 -3 10 -1 30 5 45 12 31 4 47 -11 25 -9 -13 -10 -13 -6 0 2 8 18 16
35 18 23 2 32 8 32 22 0 21 29 34 54 24 25 -10 20 -18 -24 -36 -43 -19 -57
-39 -65 -92 -6 -33 -4 -36 35 -56 l41 -21 42 46 c52 55 80 61 66 13 -5 -18
-20 -43 -33 -54 -29 -26 -116 -39 -163 -25 -18 5 -33 6 -33 1 0 -5 10 -11 23
-13 l22 -4 -22 -2 c-28 -1 -30 -27 -3 -41 30 -16 29 -100 -1 -107 -19 -5 -20
-12 -18 -139 l3 -134 83 0 c71 0 82 2 76 16 -3 9 -9 12 -12 7 -8 -11 -54 -15
-47 -4 12 19 57 19 67 0 8 -16 21 -18 84 -17 41 1 75 5 75 8 0 4 -20 6 -44 5
-33 -1 -43 2 -39 12 6 16 20 17 26 1 3 -9 12 -5 27 12 20 22 22 22 16 5 -5
-16 -1 -21 14 -22 11 -1 20 2 20 8 0 5 -4 9 -10 9 -5 0 -10 5 -10 11 0 8 4 8
13 1 7 -7 18 -7 27 -2 11 7 12 11 0 25 -9 11 -15 13 -20 4 -4 -6 -15 -9 -24
-7 -12 2 -10 6 9 15 20 9 28 8 40 -4 13 -13 15 -13 15 1 0 9 7 16 16 16 8 0
12 5 9 10 -3 6 4 31 17 56 12 25 24 41 26 35 2 -6 -6 -28 -18 -48 l-22 -38 25
30 c15 17 26 35 27 41 0 7 7 15 16 18 11 4 13 10 7 19 -6 6 -6 23 -2 37 4 14
7 18 8 8 1 -19 33 -18 39 2 3 7 0 10 -7 6 -6 -4 -11 -2 -11 4 0 7 8 9 22 5 17
-6 20 -4 15 9 -4 10 -3 14 2 11 5 -3 12 -1 16 5 3 5 1 10 -4 10 -6 0 -11 5
-11 11 0 8 4 8 14 0 9 -8 16 -8 20 -2 4 5 -3 13 -14 16 -18 6 -20 12 -14 38 5
24 36 67 48 67 1 0 1 -14 2 -30 1 -27 0 -28 -12 -12 -12 16 -13 16 -19 0 -4
-9 -3 -22 1 -29 4 -8 3 -9 -4 -5 -7 4 -12 3 -12 -3 0 -18 17 -21 30 -6 7 8 16
12 21 9 5 -3 10 14 10 38 1 39 2 40 8 13 4 -20 9 -26 14 -17 5 6 6 16 3 20 -3
5 -1 22 4 38 10 28 10 28 5 -5 -3 -19 -4 -33 -2 -30 1 2 11 15 22 28 11 14 14
21 8 17 -7 -4 -13 -6 -13 -4 1 2 7 25 14 52 11 44 14 47 18 23 3 -15 1 -27 -3
-27 -5 0 -9 -7 -9 -15 0 -26 21 -16 33 15 6 17 15 30 19 30 4 0 8 5 8 11 0 5
-4 8 -9 5 -5 -3 -15 2 -22 11 -8 9 -9 14 -3 10 7 -4 12 2 12 18 0 14 -5 25
-10 25 -5 0 -7 4 -3 9 3 6 -3 14 -12 20 -24 14 -7 14 18 0 11 -5 17 -14 14
-20 -4 -5 -1 -9 6 -9 8 0 7 -5 -2 -17 -12 -15 -12 -16 4 -10 9 3 17 2 17 -3 0
-6 -5 -10 -12 -10 -9 0 -9 -3 0 -12 9 -9 15 -8 26 7 11 15 11 22 3 27 -7 4 -7
8 -2 8 6 0 32 20 59 44 33 30 44 45 35 49 -10 4 -8 6 4 6 11 1 15 6 11 13 -4
7 -3 8 5 4 6 -4 14 0 18 11 4 10 14 25 23 33 9 8 15 21 12 29 -3 8 0 11 6 7 7
-4 22 10 36 31 13 21 33 45 45 53 11 8 21 20 21 27 0 7 5 13 11 13 8 0 7 6 -2
18 -13 15 -12 16 4 3 10 -8 17 -9 17 -3 0 6 14 25 32 43 19 19 32 42 33 58 0
19 5 26 18 25 13 -2 16 3 12 20 -2 11 -2 15 1 9 3 -7 10 -13 15 -13 6 0 7 5 3
12 -5 7 -3 8 6 3 10 -6 12 -4 7 8 -4 11 -1 17 8 17 18 0 20 20 3 20 -7 1 2 7
20 15 31 14 47 33 18 22 -11 -4 -13 -1 -9 10 5 12 2 15 -9 11 -9 -4 -15 0 -15
8 0 18 11 18 27 -1 7 -8 17 -12 22 -9 6 4 5 10 -3 15 -11 7 -10 9 4 9 20 0 49
24 41 33 -3 3 -12 3 -20 0 -8 -3 -14 1 -14 8 -1 8 -8 2 -16 -14 -12 -22 -18
-26 -34 -17 -26 14 -29 13 -25 -9 3 -17 0 -18 -26 -9 -37 13 -38 20 -1 12 19
-4 23 -3 13 4 -11 8 -11 10 0 14 8 3 -10 10 -38 17 -29 7 -53 17 -53 22 0 5
-4 9 -9 9 -6 0 -3 -12 5 -27 16 -33 18 -53 4 -53 -5 0 -10 10 -10 22 0 12 -7
30 -17 40 -13 14 -13 18 -2 18 12 0 11 2 -1 10 -9 6 -17 5 -22 -3 -5 -8 -8 -7
-8 4 0 9 -13 22 -30 29 -16 7 -34 18 -40 25 -6 8 29 -8 77 -33 49 -26 99 -48
112 -49 13 -1 29 -7 34 -12 7 -7 21 -4 42 9 29 18 34 18 45 5 10 -12 16 -13
27 -4 7 7 16 9 20 5 3 -3 1 -6 -6 -6 -7 0 -9 -5 -6 -10 14 -23 31 10 29 55 -2
44 8 60 20 29 8 -22 8 -26 -4 -19 -5 3 -10 2 -10 -4 0 -19 15 -18 32 3 9 11
28 35 42 52 14 17 23 34 19 38 -11 11 -53 6 -85 -10 -24 -12 -32 -13 -38 -4
-5 7 -19 11 -34 8 -14 -3 -26 -1 -26 5 0 6 20 7 53 4 28 -4 46 -3 39 2 -8 5 5
8 34 9 26 1 54 -3 62 -10 13 -11 15 -10 10 2 -4 11 0 16 12 17 13 1 0 -23 -49
-87 -38 -49 -76 -96 -85 -105 -9 -9 -30 -36 -47 -61 -16 -24 -34 -44 -39 -44
-5 0 -11 -8 -14 -18 -4 -10 -20 -34 -36 -52 -17 -19 -30 -36 -30 -39 0 -3 -13
-19 -28 -36 -15 -16 -45 -52 -67 -80 -22 -27 -65 -80 -95 -116 -30 -37 -66
-81 -80 -99 -56 -71 -162 -206 -223 -280 -7 -8 -23 -30 -35 -48 -13 -18 -28
-29 -33 -26 -6 3 -9 0 -8 -7 3 -15 -45 -88 -96 -148 -66 -77 -165 -201 -165
-206 0 -3 589 -5 1310 -5 l1310 0 0 888 c0 820 -1 889 -17 912 -9 14 -24 30
-32 36 -12 10 -9 13 17 19 l32 6 -3 462 -2 462 -130 1 c-71 1 -165 6 -208 12
-93 12 -150 -1 -155 -36 -3 -20 -4 -20 -59 5 -49 23 -60 24 -94 14 -21 -6 -52
-23 -69 -38 -29 -24 -100 -42 -100 -24 0 17 31 227 35 239 9 25 -14 11 -24
-15 l-11 -28 4 28 c3 23 0 27 -20 27 -16 0 -24 -6 -25 -17 0 -16 -1 -16 -7 -2
-6 14 -26 17 -126 18 -89 2 -121 -1 -127 -11 -7 -10 -9 -10 -9 0 0 6 -4 12 -8
12 -5 0 -19 -77 -32 -170 l-23 -170 -23 15 c-13 8 -30 15 -38 15 -12 0 -14 10
-9 50 4 38 2 56 -12 76 -14 23 -16 40 -10 105 5 66 4 79 -8 79 -16 0 -27 -29
-27 -77 0 -39 -15 -50 -39 -29 -10 9 -21 13 -24 9 -6 -6 -4 22 8 80 3 16 -9
17 -144 17 -138 0 -148 -1 -181 -24 -61 -41 -203 -117 -208 -111 -3 3 -1 23 5
45 6 24 6 41 1 42 -5 2 6 11 25 20 26 12 34 13 34 3 0 -8 -7 -11 -15 -7 -10 3
-13 1 -8 -6 3 -6 0 -14 -8 -19 -14 -8 -34 -63 -23 -63 14 0 57 24 57 32 0 4 7
8 16 8 9 0 27 9 41 20 19 15 21 20 9 20 -9 0 -16 5 -16 11 0 6 -9 8 -22 3 -13
-3 -20 -3 -16 1 10 11 59 15 53 5 -9 -15 33 -21 54 -8 12 7 21 16 21 19 0 9
-172 4 -194 -6 -14 -6 -17 -5 -12 4 6 9 -24 12 -132 10 l-140 -2 2 -68 c0 -37
4 -70 7 -73 3 -4 5 6 5 21 -1 16 2 36 6 45 5 10 3 18 -5 21 -9 4 -8 6 2 6 11
1 11 4 0 18 -12 15 -12 16 3 10 9 -3 19 -1 22 6 4 7 4 1 0 -13 -7 -33 -25
-193 -28 -250 -1 -25 -3 -80 -4 -123 -1 -49 -6 -76 -12 -72 -7 4 -7 -3 0 -19
5 -14 6 -26 2 -26 -4 0 -8 -10 -7 -22 0 -13 -4 -66 -9 -118 -8 -90 -10 -97
-35 -111 l-27 -16 8 61 c5 34 9 70 10 81 0 11 4 63 9 115 4 52 10 133 14 180
8 120 15 215 21 287 5 57 4 62 -15 60 -23 -1 -26 -27 -36 -262 -10 -261 -36
-539 -51 -548 -8 -4 -14 -14 -14 -21 0 -7 -19 -26 -42 -41 l-41 -27 6 168 c4
93 9 183 12 199 5 30 30 308 42 456 l5 76 -68 2 c-46 1 -70 -2 -76 -11 -6 -10
-8 -10 -8 0 0 9 -56 12 -245 12 l-245 0 0 -612z m612 446 c-8 -15 -10 -15 -15
0 -4 10 -3 15 3 11 7 -4 10 12 9 42 -2 79 5 104 8 30 2 -37 0 -74 -5 -83z
m438 137 c0 -6 -4 -12 -8 -15 -5 -3 -9 1 -9 9 0 8 4 15 9 15 4 0 8 -4 8 -9z
m800 -16 c0 -8 -4 -15 -10 -15 -5 0 -7 7 -4 15 4 8 8 15 10 15 2 0 4 -7 4 -15z
m-808 -55 c-2 -22 -8 -40 -13 -40 -5 0 -6 12 -3 26 5 20 4 25 -5 19 -9 -5 -9
-1 1 14 19 31 24 26 20 -19z m795 8 c-3 -8 -6 -5 -6 6 -1 11 2 17 5 13 3 -3 4
-12 1 -19z m-984 -3 c4 -8 2 -17 -3 -20 -6 -4 -10 3 -10 14 0 25 6 27 13 6z
m-426 -27 c-3 -7 -5 -2 -5 12 0 14 2 19 5 13 2 -7 2 -19 0 -25z m497 -8 c-5
-5 -10 3 -11 18 -1 22 0 24 9 8 6 -10 6 -22 2 -26z m383 18 c-3 -8 -6 -5 -6 6
-1 11 2 17 5 13 3 -3 4 -12 1 -19z m293 -13 c0 -8 -7 -15 -15 -15 -16 0 -20
12 -8 23 11 12 23 8 23 -8z m245 5 c3 -6 -1 -7 -9 -4 -18 7 -21 14 -7 14 6 0
13 -4 16 -10z m-960 -10 c-3 -5 -12 -10 -18 -10 -7 0 -6 4 3 10 19 12 23 12
15 0z m-38 -32 c-3 -7 -5 -2 -5 12 0 14 2 19 5 13 2 -7 2 -19 0 -25z m158 22
c3 -5 1 -10 -4 -10 -6 0 -11 5 -11 10 0 6 2 10 4 10 3 0 8 -4 11 -10z m635
-12 c-1 -27 -25 -63 -34 -50 -6 10 -1 46 9 62 11 18 25 11 25 -12z m193 -8
c-3 -12 -8 -19 -11 -16 -5 6 5 36 12 36 2 0 2 -9 -1 -20z m-1516 -22 c-3 -7
-5 -2 -5 12 0 14 2 19 5 13 2 -7 2 -19 0 -25z m59 20 c4 -7 3 -8 -4 -4 -7 4
-12 2 -12 -5 0 -7 -3 -10 -6 -6 -6 5 3 27 11 27 2 0 7 -5 11 -12z m664 -13 c0
-14 -2 -25 -4 -25 -2 0 -6 11 -8 25 -3 14 -1 25 3 25 5 0 9 -11 9 -25z m538 5
c3 -7 0 -10 -7 -6 -7 5 -9 1 -5 -8 3 -9 10 -16 15 -16 5 0 1 -8 -8 -18 -17
-17 -18 -16 -25 8 -13 45 16 83 30 40z m457 10 c3 -5 1 -10 -4 -10 -6 0 -11 5
-11 10 0 6 2 10 4 10 3 0 8 -4 11 -10z m-738 -37 c-3 -10 -5 -4 -5 12 0 17 2
24 5 18 2 -7 2 -21 0 -30z m840 10 c0 -16 -1 -20 -4 -10 -2 9 -10 17 -16 17
-9 0 2 12 18 20 0 0 1 -12 2 -27z m-481 -17 c-3 -32 -24 -56 -42 -49 -8 3 -14
-1 -14 -11 0 -9 -7 -16 -15 -16 -10 0 -14 8 -11 23 3 17 10 22 30 20 14 -1 25
1 24 5 -2 8 21 52 27 52 2 0 2 -11 1 -24z m455 7 c13 -16 12 -17 -3 -4 -10 7
-18 15 -18 17 0 8 8 3 21 -13z m-1267 -27 c2 -14 -1 -23 -5 -20 -5 3 -9 17 -9
31 0 32 11 24 14 -11z m-520 8 c3 -8 2 -12 -4 -9 -6 3 -10 10 -10 16 0 14 7
11 14 -7z m1775 -18 c-19 -20 -8 -28 14 -10 22 19 22 19 4 -2 -9 -11 -15 -24
-12 -27 3 -4 -1 -2 -7 3 -7 6 -13 24 -14 40 -1 23 1 26 11 17 8 -7 10 -16 4
-21z m-1059 9 c0 -8 -4 -15 -10 -15 -5 0 -10 7 -10 15 0 8 5 15 10 15 6 0 10
-7 10 -15z m637 -32 c-11 -12 -16 -12 -22 -2 -5 7 -4 10 2 6 6 -4 14 5 19 21
6 22 8 23 12 8 2 -10 -3 -25 -11 -33z m650 41 c-3 -3 -11 -7 -19 -8 -29 -6
-48 -19 -41 -29 3 -6 1 -7 -5 -3 -7 4 -12 2 -12 -3 0 -6 5 -11 10 -11 6 0 10
-5 10 -12 0 -8 -7 -5 -17 6 -17 17 -17 18 9 40 23 18 82 36 65 20z m-497 -16
c0 7 5 10 11 6 8 -4 7 -9 -2 -15 -15 -9 -29 -3 -29 14 0 7 4 6 10 -3 7 -11 10
-11 10 -2z m-877 -13 c-3 -9 -8 -14 -10 -11 -3 3 -2 9 2 15 9 16 15 13 8 -4z
m1034 -17 c-3 -8 -6 -5 -6 6 -1 11 2 17 5 13 3 -3 4 -12 1 -19z m426 15 c-7
-2 -19 -2 -25 0 -7 3 -2 5 12 5 14 0 19 -2 13 -5z m62 -3 c3 -5 2 -10 -4 -10
-5 0 -13 5 -16 10 -3 6 -2 10 4 10 5 0 13 -4 16 -10z m-148 -6 c-3 -3 -12 -4
-19 -1 -8 3 -5 6 6 6 11 1 17 -2 13 -5z m-2006 -82 c1 -40 -1 -75 -4 -79 -4
-3 -7 31 -7 77 0 101 8 103 11 2z m516 46 c-3 -7 -5 -2 -5 12 0 14 2 19 5 13
2 -7 2 -19 0 -25z m1683 7 c8 -7 35 -23 59 -35 l44 -22 -28 -18 c-22 -14 -34
-16 -59 -8 -61 19 -98 26 -115 22 -9 -2 -35 -8 -59 -14 -31 -7 -48 -7 -60 1
-16 10 -16 10 1 5 25 -8 21 3 -5 14 -15 5 -17 9 -7 9 9 1 16 8 16 16 0 10 -6
14 -16 10 -10 -4 -8 1 5 14 12 11 34 21 50 23 49 7 158 -4 174 -17z m-610 5
c0 -5 -4 -10 -10 -10 -5 0 -10 5 -10 10 0 6 5 10 10 10 6 0 10 -4 10 -10z
m247 -26 c-25 -20 -53 -47 -62 -60 -8 -13 -23 -24 -32 -24 -20 0 61 90 97 107
45 21 44 14 -3 -23z m-1130 -56 c-2 -18 -4 -6 -4 27 0 33 2 48 4 33 2 -15 2
-42 0 -60z m993 72 c0 -5 -5 -10 -11 -10 -5 0 -7 5 -4 10 3 6 8 10 11 10 2 0
4 -4 4 -10z m84 -12 c-13 -23 -47 -58 -57 -58 -5 0 2 9 17 21 14 11 26 27 26
35 0 8 5 14 11 14 5 0 7 -6 3 -12z m-292 -23 c3 -14 1 -25 -3 -25 -5 0 -9 11
-9 25 0 14 2 25 4 25 2 0 6 -11 8 -25z m398 -7 c0 -6 -6 -5 -15 2 -8 7 -15 14
-15 16 0 2 7 1 15 -2 8 -4 15 -11 15 -16z m-1376 -45 c-3 -32 -8 -60 -10 -62
-6 -7 -5 86 2 103 11 29 13 17 8 -41z m920 37 c25 -10 46 -23 45 -27 0 -4 -68
-62 -151 -128 -84 -66 -207 -166 -274 -222 -67 -56 -125 -99 -130 -95 -4 4 -4
2 -1 -4 3 -6 -9 -26 -28 -44 -19 -19 -35 -29 -35 -22 0 6 9 16 21 22 11 7 18
14 15 17 -3 3 -12 1 -20 -6 -11 -9 -28 -5 -79 20 l-66 33 62 45 c75 54 258
201 307 245 72 65 103 83 130 75 55 -16 87 -10 114 22 15 18 26 43 26 60 0 34
4 35 64 9z m91 2 c-3 -3 -11 0 -18 7 -9 10 -8 11 6 5 10 -3 15 -9 12 -12z
m334 4 c-2 -2 -15 -9 -29 -15 -24 -11 -24 -11 -6 3 16 13 49 24 35 12z m-1586
-40 c-3 -4 -9 -2 -14 5 -13 22 -11 31 5 17 8 -7 12 -17 9 -22z m281 18 c3 -8
2 -12 -4 -9 -6 3 -10 10 -10 16 0 14 7 11 14 -7z m1386 6 c0 -5 -4 -10 -10
-10 -5 0 -10 5 -10 10 0 6 5 10 10 10 6 0 10 -4 10 -10z m-300 -4 c0 -3 -4 -8
-10 -11 -5 -3 -10 -1 -10 4 0 6 5 11 10 11 6 0 10 -2 10 -4z m-129 -19 c-6 -8
-8 -17 -4 -20 3 -4 1 -7 -5 -7 -15 0 -15 13 0 28 16 16 23 15 9 -1z m204 -5
c-11 -11 -32 -10 -32 3 0 7 8 10 19 7 10 -2 16 -7 13 -10z m471 7 l45 -12 -22
-23 -22 -24 -25 25 c-25 25 -34 27 -102 27 l-35 -1 30 9 c44 12 81 11 131 -1z
m-528 -11 c-2 -6 8 -14 22 -18 22 -5 19 -7 -19 -13 -24 -4 -46 -5 -49 -2 -3 3
4 5 16 5 26 0 30 20 5 21 -15 0 -15 2 2 9 11 5 21 9 23 9 1 1 1 -4 0 -11z
m315 -12 c-4 -6 1 -6 13 -2 10 4 15 4 11 0 -4 -4 1 -13 11 -21 9 -8 -2 -5 -25
7 -47 22 -53 30 -24 27 11 0 17 -5 14 -11z m-783 1 c0 -2 -15 -13 -32 -26
l-33 -22 28 25 c26 24 37 31 37 23z m310 -24 c0 -3 -6 -3 -13 0 -14 5 -54 -20
-49 -31 2 -4 11 -16 20 -27 17 -20 17 -20 -5 -1 -13 10 -20 23 -17 27 3 5 1 9
-5 9 -5 0 -12 -6 -14 -12 -4 -9 -6 -9 -6 -1 -1 15 60 51 77 45 6 -2 12 -6 12
-9z m-863 1 c-3 -3 -12 -4 -19 -1 -8 3 -5 6 6 6 11 1 17 -2 13 -5z m874 -17
c-10 -9 -11 -8 -5 6 3 10 9 15 12 12 3 -3 0 -11 -7 -18z m-1421 3 c0 -5 -2
-10 -4 -10 -3 0 -8 5 -11 10 -3 6 -1 10 4 10 6 0 11 -4 11 -10z m600 -122
c-13 -139 -21 -201 -25 -206 -2 -2 -24 8 -49 23 -34 20 -54 25 -74 21 -20 -5
-23 -4 -12 4 23 15 45 12 85 -11 20 -12 38 -19 41 -16 4 3 8 25 9 49 7 93 29
268 33 264 2 -3 -1 -60 -8 -128z m895 119 c-11 -6 -22 -12 -25 -12 -23 -4 -49
-18 -54 -30 -3 -8 -10 -15 -16 -15 -17 0 24 42 55 56 38 17 68 18 40 1z
m-1575 -34 c-11 -17 -11 -17 -6 0 3 10 6 24 7 30 0 9 2 9 5 0 3 -7 0 -20 -6
-30z m2063 12 c-3 -9 -8 -14 -10 -11 -3 3 -2 9 2 15 9 16 15 13 8 -4z m-28 -5
c3 -5 1 -10 -4 -10 -6 0 -11 5 -11 10 0 6 2 10 4 10 3 0 8 -4 11 -10z m-597
-36 c2 -1 -5 -5 -15 -8 -9 -4 -14 -4 -10 0 4 4 1 14 -6 23 -11 14 -10 15 8 1
11 -8 21 -15 23 -16z m-951 -16 c-3 -7 -5 -2 -5 12 0 14 2 19 5 13 2 -7 2 -19
0 -25z m873 7 c5 3 12 0 16 -6 4 -7 3 -9 -4 -5 -6 3 -13 2 -17 -4 -3 -5 -1
-10 4 -10 21 0 11 -16 -11 -17 -13 -1 -18 1 -13 5 16 11 16 32 2 32 -8 0 -19
-10 -25 -22 -8 -18 -11 -19 -11 -6 -1 19 42 54 47 38 2 -6 8 -8 12 -5z m-1170
-5 c0 -5 -5 -10 -11 -10 -5 0 -7 5 -4 10 3 6 8 10 11 10 2 0 4 -4 4 -10z
m1269 -7 c-26 -33 -71 -60 -54 -33 3 6 1 10 -4 10 -6 0 -11 5 -11 12 0 9 3 9
12 0 15 -15 31 -16 22 0 -4 6 -3 8 3 5 6 -4 16 0 23 8 18 21 25 19 9 -2z
m-469 3 c0 -2 -8 -10 -17 -17 -16 -13 -17 -12 -4 4 13 16 21 21 21 13z m300
-36 c0 -5 -5 -10 -11 -10 -5 0 -7 5 -4 10 3 6 8 10 11 10 2 0 4 -4 4 -10z
m-804 -27 c-10 -10 -19 5 -10 18 6 11 8 11 12 0 2 -7 1 -15 -2 -18z m386 -6
c-12 -13 -19 -27 -15 -32 5 -4 2 -5 -5 -1 -7 4 -39 -12 -80 -41 -37 -27 -74
-53 -82 -57 -28 -14 45 44 113 91 37 25 70 50 73 54 3 5 8 9 11 9 4 0 -3 -10
-15 -23z m497 -3 c-33 -35 -58 -48 -55 -29 1 8 6 18 11 22 4 4 5 2 0 -6 -5 -9
-3 -12 6 -9 8 3 13 11 11 17 -1 7 2 10 8 6 5 -3 13 1 16 9 3 9 11 16 17 16 6
0 0 -12 -14 -26z m97 12 c3 -8 4 -22 2 -30 -2 -11 -8 -7 -20 14 -15 26 -15 30
-2 30 8 0 17 -6 20 -14z m-36 -16 c13 -9 13 -10 0 -10 -9 0 -11 -3 -4 -8 14
-10 44 -54 44 -67 0 -5 -12 7 -26 28 -26 39 -62 48 -72 18 -3 -9 1 -11 16 -7
29 10 79 -57 87 -117 4 -29 3 -47 -3 -47 -6 0 -24 -11 -40 -25 l-29 -24 -21
29 c-27 36 -28 56 -2 63 11 3 20 1 20 -4 0 -5 -7 -9 -15 -9 -8 0 -15 -3 -15
-6 0 -12 26 -31 44 -31 18 0 18 1 0 14 -15 11 -16 13 -2 13 9 0 20 -4 23 -10
3 -5 11 -10 16 -10 6 0 7 5 3 12 -5 7 -3 8 6 3 10 -6 11 -4 5 11 -4 10 -8 30
-8 44 1 24 1 24 -13 5 -9 -12 -14 -14 -14 -5 0 7 -3 10 -7 6 -5 -4 0 -14 10
-21 10 -7 14 -16 9 -19 -16 -10 -35 22 -28 48 5 19 1 28 -13 36 -26 13 -84 13
-76 0 4 -6 10 -8 15 -5 4 3 11 -2 14 -11 3 -8 2 -12 -4 -9 -13 8 -13 -1 0 -26
9 -15 7 -19 -7 -19 -27 0 -78 36 -61 43 9 4 9 6 1 6 -7 1 -17 -8 -23 -19 -6
-11 -16 -20 -23 -19 -20 3 -47 -12 -47 -28 0 -12 2 -12 16 1 8 9 20 13 25 10
6 -3 20 2 31 13 12 10 18 12 14 6 -4 -8 -2 -13 5 -13 17 0 5 -11 -18 -15 -10
-2 -20 -4 -22 -4 -2 -1 0 -7 5 -14 5 -7 2 -5 -7 5 -18 19 -35 12 -18 -8 8 -9
5 -11 -9 -7 -11 2 -22 0 -26 -5 -3 -5 6 -10 19 -11 14 -1 36 -2 49 -3 14 -1
22 -6 20 -10 -7 -11 -47 -10 -79 2 -19 7 -25 7 -24 -3 3 -28 -2 -37 -23 -37
l-23 1 23 12 c12 7 20 16 16 20 -4 4 1 15 10 26 13 14 14 20 4 23 -15 5 59 79
117 116 22 14 56 38 75 54 39 31 39 32 60 18z m-945 -10 c3 -5 1 -10 -4 -10
-6 0 -11 5 -11 10 0 6 2 10 4 10 3 0 8 -4 11 -10z m712 -22 c-15 -11 -24 -25
-21 -30 5 -7 2 -8 -5 -3 -8 4 -24 -4 -42 -21 -21 -20 -26 -30 -17 -36 10 -6
10 -8 0 -8 -7 0 -11 -4 -8 -9 3 -5 -5 -16 -19 -25 -14 -9 -25 -12 -25 -6 0 5
5 10 11 10 8 0 9 4 0 13 -8 11 6 28 67 79 42 37 79 64 82 61 3 -2 -7 -14 -23
-25z m-287 18 c0 -3 -15 -14 -32 -26 l-33 -22 30 26 c31 27 35 29 35 22z m357
-11 c0 -8 -4 -12 -9 -9 -5 3 -6 10 -3 15 9 13 12 11 12 -6z m28 5 c3 -5 1 -10
-4 -10 -6 0 -11 5 -11 10 0 6 2 10 4 10 3 0 8 -4 11 -10z m-765 -15 c0 -8 -2
-15 -4 -15 -2 0 -6 7 -10 15 -3 8 -1 15 4 15 6 0 10 -7 10 -15z m-292 -57 l-1
-63 -6 55 c-4 30 -5 58 -3 63 9 19 12 2 10 -55z m1048 39 c-11 -7 -38 -28 -60
-47 -23 -19 -35 -28 -28 -18 7 9 9 18 5 20 -4 3 -2 3 5 2 7 -2 15 3 19 12 3 8
20 21 37 29 39 17 47 18 22 2z m-451 -17 c-3 -5 -20 -19 -38 -30 l-32 -22 35
31 c35 32 46 38 35 21z m319 -22 c-5 -8 -2 -9 10 -5 10 4 15 3 11 -3 -3 -6
-13 -10 -21 -10 -8 0 -14 -5 -14 -12 0 -6 -3 -9 -6 -6 -6 7 13 48 22 48 3 0 2
-5 -2 -12z m-667 -4 c-3 -3 -12 -4 -19 -1 -8 3 -5 6 6 6 11 1 17 -2 13 -5z
m903 -16 c0 6 4 12 9 12 5 0 4 -11 -2 -25 -13 -27 -22 -31 -33 -13 -5 7 -3 8
6 3 9 -6 10 -1 5 16 -5 19 -4 21 4 9 7 -10 11 -11 11 -2z m-892 -22 c-2 -1
-11 -7 -20 -15 -15 -11 -17 -10 -15 7 1 13 7 18 19 14 11 -2 17 -5 16 -6z
m682 2 c0 -4 -4 -8 -9 -8 -6 0 -12 4 -15 8 -3 5 1 9 9 9 8 0 15 -4 15 -9z
m-445 -18 c-3 -5 -16 -15 -28 -21 -19 -9 -19 -8 3 10 28 23 34 26 25 11z m309
-5 c-4 -8 -11 -15 -16 -15 -6 0 -5 6 2 15 7 8 14 15 16 15 2 0 1 -7 -2 -15z
m88 -7 c-13 -13 -28 -31 -35 -40 -11 -15 -14 -15 -26 -2 -11 13 -11 15 0 12 8
-1 27 10 43 25 35 32 50 37 18 5z m28 -43 c-4 -5 -10 -17 -14 -25 -3 -8 -4 -1
0 15 4 22 3 27 -6 19 -6 -6 -12 -18 -13 -25 -4 -24 -18 -40 -29 -33 -6 4 -9 1
-6 -7 3 -8 10 -14 16 -14 21 0 23 -14 3 -25 -29 -15 -19 -27 18 -24 37 2 39
-5 7 -35 -14 -13 -30 -36 -36 -52 -7 -16 -16 -29 -19 -29 -37 0 -70 103 -37
116 9 3 14 10 11 14 -3 5 4 15 15 23 11 7 17 17 14 20 -4 4 11 29 32 57 32 42
40 47 45 33 4 -10 3 -22 -1 -28z m140 15 c0 -7 7 -7 23 0 21 11 21 11 -2 -10
-18 -15 -27 -18 -37 -9 -8 6 -11 15 -8 20 7 12 24 11 24 -1z m-303 -14 c0 -8
-5 -14 -11 -13 -6 1 -10 -3 -9 -9 1 -5 -6 -15 -16 -21 -14 -9 -18 -8 -18 3 0
8 2 12 5 9 3 -2 13 7 24 20 23 29 25 30 25 11z m18 -25 c-3 -6 -11 -11 -16
-11 -5 0 -4 6 3 14 14 16 24 13 13 -3z m-878 -23 c-3 -8 -6 -5 -6 6 -1 11 2
17 5 13 3 -3 4 -12 1 -19z m929 -2 c-15 -23 -29 -25 -34 -4 -2 9 0 8 7 -2 10
-13 11 -13 12 0 1 8 1 18 1 21 -1 3 6 6 14 6 12 0 12 -3 0 -21z m304 12 c0 -4
0 -11 -1 -14 0 -4 5 -10 12 -15 13 -8 -38 -65 -138 -153 -33 -29 -40 -33 -36
-17 3 12 9 19 13 16 4 -2 20 9 35 25 16 17 23 30 17 30 -7 0 -12 5 -12 11 0 8
4 8 13 1 17 -15 101 62 93 84 -3 9 -6 19 -6 23 0 13 -43 10 -64 -5 -11 -7 -30
-14 -41 -14 -15 0 -11 5 15 19 36 18 100 25 100 9z m159 -86 c-12 -32 -5 -54
16 -46 8 3 12 11 8 17 -3 6 -1 7 5 3 7 -4 12 -11 12 -16 0 -11 -70 -43 -78
-36 -6 7 8 27 16 22 4 -2 7 18 6 45 -1 27 1 60 4 72 5 21 6 20 13 -7 4 -15 3
-40 -2 -54z m-500 24 c-15 -12 -33 -39 -48 -71 -15 -32 -51 -81 -51 -70 0 6 7
21 16 33 8 12 13 26 9 32 -3 5 4 14 15 20 11 6 18 15 15 21 -4 5 -1 9 5 9 7 0
10 7 6 15 -3 8 -2 14 2 14 28 -5 35 2 16 17 -18 14 -18 14 5 3 21 -10 22 -13
10 -23z m149 14 c-15 -24 -38 -34 -38 -17 0 10 11 18 48 36 1 0 -3 -8 -10 -19z
m421 -26 c23 -26 41 -51 41 -55 0 -5 7 -9 15 -9 20 0 19 7 -5 32 -29 31 -25
46 5 18 28 -26 32 -45 11 -57 -8 -4 -16 -17 -19 -28 -4 -16 -5 -15 -6 6 -1 23
-63 108 -96 131 -6 5 -6 8 2 8 6 0 30 -21 52 -46z m-702 29 c-4 -3 1 -11 10
-18 13 -9 13 -14 3 -20 -9 -5 -11 -4 -6 3 4 7 1 12 -9 12 -12 0 -15 -5 -10
-17 5 -14 3 -15 -5 -7 -9 9 -9 17 -1 33 7 12 15 21 18 21 3 0 3 -3 0 -7z m308
-14 c-5 -13 -3 -19 3 -15 5 3 13 -1 16 -9 4 -13 2 -14 -14 -5 -22 12 -22 12
-14 34 9 24 16 19 9 -5z m35 17 c0 -3 -4 -8 -10 -11 -5 -3 -10 -1 -10 4 0 6 5
11 10 11 6 0 10 -2 10 -4z m-400 -16 c0 -10 -57 -50 -132 -94 -33 -18 -48 -23
-48 -14 0 8 39 37 88 65 99 59 92 56 92 43z m411 -13 c-10 -9 -11 -8 -5 6 3
10 9 15 12 12 3 -3 0 -11 -7 -18z m482 -123 c4 -4 7 -16 7 -26 0 -12 4 -16 12
-12 7 4 8 3 4 -4 -10 -17 3 -15 20 2 12 13 11 15 -6 21 -11 4 -18 10 -15 15 3
5 -1 11 -7 14 -7 3 -4 5 6 3 11 -1 18 -6 15 -10 -2 -5 7 -14 20 -22 24 -12 24
-13 -34 -51 -83 -56 -117 -74 -128 -67 -5 3 5 12 23 21 23 11 30 20 27 34 -7
25 2 23 13 -4 5 -14 9 -17 9 -7 1 8 13 20 29 27 l27 11 -30 -3 c-16 -2 -25 -1
-18 1 20 7 26 42 9 58 -8 9 -13 22 -9 30 4 11 0 14 -13 9 -16 -6 -17 -5 -6 7
6 7 13 31 13 54 1 34 3 30 13 -27 6 -37 14 -70 19 -74z m-136 83 c19 -30 20
-37 8 -37 -9 0 -14 -4 -10 -9 3 -5 -4 -12 -15 -16 -16 -5 -18 -10 -10 -26 10
-18 6 -23 -13 -20 -5 1 -6 -3 -2 -9 3 -6 10 -8 15 -5 4 3 21 -7 37 -23 17 -15
38 -26 49 -25 18 3 18 2 -1 -6 -15 -7 -26 -3 -45 14 -14 12 -37 25 -52 29 -26
6 -26 8 -16 39 6 17 20 38 30 45 10 7 18 21 18 30 -1 21 -25 54 -33 45 -4 -3
-7 -1 -7 6 0 22 23 6 47 -32z m-1393 18 c-10 -8 -26 -14 -34 -15 -8 0 -4 6 10
14 34 19 48 20 24 1z m318 -57 l137 -61 36 32 c20 17 39 31 42 31 14 0 -53
-61 -72 -66 -20 -5 -96 24 -252 97 -35 16 -63 32 -63 35 0 8 7 5 172 -68z
m315 40 c-3 -8 -6 -5 -6 6 -1 11 2 17 5 13 3 -3 4 -12 1 -19z m30 -11 c0 -8
-6 -14 -14 -14 -9 0 -10 4 -2 14 6 7 12 13 14 13 1 0 2 -6 2 -13z m343 3 c0
-5 -2 -10 -4 -10 -3 0 -8 5 -11 10 -3 6 -1 10 4 10 6 0 11 -4 11 -10z m35 -9
c3 -5 2 -12 -3 -15 -5 -3 -9 1 -9 9 0 17 3 19 12 6z m-425 -12 c0 -6 -28 -40
-62 -75 -59 -61 -67 -81 -20 -48 12 8 22 11 22 6 0 -10 -57 -49 -93 -64 -10
-4 -15 -12 -12 -18 11 -18 38 -11 67 17 15 14 30 24 33 22 2 -3 -11 -20 -30
-39 -33 -32 -35 -33 -60 -16 -14 9 -30 14 -35 11 -6 -3 -10 -3 -10 1 0 10 30
33 59 45 20 8 21 12 10 25 -11 14 -4 25 51 79 66 64 80 74 80 54z m215 -69
c10 -11 25 -20 34 -20 11 0 12 -3 4 -11 -16 -16 -53 -1 -64 28 -5 13 -9 39 -8
56 l1 32 8 -33 c4 -18 16 -42 25 -52z m449 23 c-1 -32 1 -62 4 -67 8 -15 11
-70 2 -56 -5 8 -13 3 -27 -17 -25 -36 -47 -92 -40 -99 10 -11 28 8 23 23 -6
15 32 88 41 79 3 -3 -5 -21 -17 -40 -12 -20 -17 -36 -12 -36 5 0 17 18 27 40
20 45 23 46 51 25 10 -8 34 -15 52 -15 29 0 32 -2 23 -19 -9 -16 -7 -19 14
-17 23 1 30 8 26 30 -1 5 5 4 13 -4 9 -7 16 -25 16 -40 0 -23 -4 -27 -25 -25
-17 2 -31 -5 -45 -22 -20 -26 -28 -59 -11 -48 5 3 12 1 15 -4 7 -11 -22 -36
-31 -27 -3 3 -1 6 6 6 7 0 9 5 6 10 -5 8 -11 7 -21 -1 -12 -10 -13 -9 -8 5 4
11 0 16 -12 17 -17 1 -17 2 -1 6 9 2 15 9 11 14 -3 5 -10 7 -15 4 -5 -4 -9 -2
-9 4 0 12 54 51 72 51 8 0 6 4 -5 11 -13 8 -22 7 -34 -3 -31 -25 -94 -132
-109 -185 -18 -63 -25 -143 -13 -143 5 0 9 6 9 14 0 8 5 27 12 43 6 15 12 33
13 39 5 23 57 104 67 104 5 0 2 -7 -6 -16 -21 -21 -20 -35 2 -27 9 3 4 -5 -13
-18 -33 -26 -46 -41 -40 -47 2 -3 19 8 37 23 48 40 98 60 109 43 7 -10 9 -10
9 3 0 18 42 33 140 49 36 6 97 17 135 26 39 8 75 15 82 16 18 2 36 53 28 79
-5 14 -4 19 4 15 6 -4 11 -12 11 -18 0 -6 28 -47 61 -92 79 -103 100 -150 143
-316 42 -159 49 -183 70 -232 9 -21 16 -39 16 -42 0 -10 -113 -56 -163 -65
-30 -5 -72 -17 -92 -25 -60 -25 -73 -21 -86 27 -25 93 -41 137 -49 137 -5 0
-12 25 -15 55 -8 63 -19 66 -17 6 1 -22 15 -66 32 -97 34 -67 36 -74 15 -74
-20 0 -65 91 -86 175 -11 47 -17 60 -18 40 -2 -55 65 -223 90 -226 5 -1 14 -2
20 -3 6 0 17 -17 23 -36 9 -27 17 -35 34 -34 19 1 22 -3 17 -25 -3 -14 -8 -39
-11 -55 -3 -16 -11 -44 -19 -63 -17 -40 -105 -144 -116 -137 -5 2 -16 -10 -25
-28 -32 -63 -136 -208 -172 -239 -19 -17 -49 -58 -65 -90 -25 -50 -37 -62 -75
-80 -26 -11 -54 -27 -63 -35 -16 -14 -19 -14 -32 8 -62 103 -85 133 -140 184
-34 33 -66 61 -70 64 -5 3 -31 26 -58 53 -27 26 -54 47 -60 47 -6 0 12 -18 40
-40 28 -22 51 -43 51 -47 0 -3 -8 1 -17 9 -10 8 -61 49 -114 91 -53 41 -116
96 -140 121 -44 47 -134 186 -120 186 4 0 13 -12 19 -26 7 -14 17 -22 22 -19
6 4 7 -1 3 -12 -5 -17 -5 -17 12 -1 11 10 18 31 18 50 0 18 2 27 5 21 5 -18
19 -16 26 4 5 11 -1 24 -16 36 -18 15 -19 16 -3 8 53 -26 121 -85 210 -183 54
-60 104 -108 111 -108 16 0 107 -73 207 -167 43 -40 83 -73 89 -73 26 0 -218
212 -283 245 -25 13 -53 35 -62 49 -27 41 -174 191 -202 206 -14 7 -25 17 -25
22 0 18 47 -17 130 -96 47 -45 119 -101 160 -126 41 -24 93 -60 115 -80 67
-59 301 -170 337 -158 7 3 -19 15 -57 27 -96 31 -230 102 -290 154 -27 23 -72
54 -99 67 -27 14 -92 66 -145 116 -53 50 -105 95 -116 101 -18 10 -17 12 4 39
58 74 103 115 121 109 14 -4 26 8 54 60 21 36 41 65 46 65 5 0 6 -33 4 -74 -5
-76 12 -146 36 -146 6 0 4 10 -6 24 -12 20 -15 50 -15 140 1 107 3 120 35 193
18 43 38 110 44 148 7 39 17 95 22 125 6 30 17 106 25 169 9 74 21 125 34 147
29 49 10 42 -23 -8 -17 -26 -26 -53 -25 -72 1 -17 0 -47 -1 -66 -2 -23 -6 -10
-9 35 -6 69 2 111 18 100 7 -4 19 19 25 47 2 10 68 58 80 58 7 0 11 -23 10
-57z m-284 27 c-11 -21 -30 -19 -30 3 0 8 3 8 9 -1 7 -11 9 -11 14 2 4 9 9 16
12 16 3 0 1 -9 -5 -20z m-855 -15 c29 -30 31 -35 9 -35 -10 0 -13 -6 -10 -18
5 -14 -1 -22 -20 -31 -25 -11 -26 -10 -20 13 5 19 1 29 -16 40 l-21 15 24 20
c13 11 25 20 26 21 1 0 14 -11 28 -25z m793 11 c-7 -8 -15 -12 -17 -11 -5 6
10 25 20 25 5 0 4 -6 -3 -14z m708 -30 c-23 -35 -7 -40 28 -9 l30 28 -25 -31
c-25 -33 -57 -41 -54 -14 2 24 29 73 33 61 2 -6 -3 -22 -12 -35z m-136 -28 c0
-13 0 -14 -29 32 l-23 35 26 -28 c14 -15 26 -33 26 -39z m-853 33 c-1 -16 -5
-18 -22 -9 -30 16 -33 21 -7 14 13 -5 22 -3 22 3 0 6 2 11 4 11 3 0 4 -9 3
-19z m669 -8 c-10 -10 -19 5 -10 18 6 11 8 11 12 0 2 -7 1 -15 -2 -18z m-548
-9 c3 -40 21 -64 53 -71 16 -3 29 -9 29 -14 0 -12 -7 -11 -30 1 -15 8 -20 6
-25 -10 -3 -11 -11 -20 -17 -20 -6 0 -5 6 3 16 10 13 10 17 -1 24 -12 8 -19
26 -22 57 -1 7 -5 10 -10 7 -5 -3 -6 -9 -3 -14 3 -5 1 -11 -5 -15 -6 -4 -7
-12 -4 -18 4 -7 4 -9 -1 -5 -5 5 -17 -6 -27 -22 -21 -36 -23 -44 -5 -34 7 4 9
3 4 -2 -5 -5 -14 -9 -20 -9 -7 -1 -11 -7 -9 -14 1 -7 -2 -10 -8 -6 -5 3 -10
-2 -11 -12 0 -10 -3 -13 -5 -7 -4 8 102 194 110 194 1 0 3 -11 4 -26z m625 -7
c-3 -5 -10 -4 -15 1 -6 6 -7 16 -3 22 6 9 9 9 16 -1 4 -7 5 -17 2 -22z m37 8
c7 -14 10 -28 7 -32 -4 -3 -7 0 -7 7 0 7 -7 22 -17 32 -9 10 -12 18 -6 18 5 0
16 -11 23 -25z m-507 8 c-7 -2 -13 -9 -13 -14 0 -6 5 -7 12 -3 7 4 8 3 4 -4
-4 -6 -13 -9 -22 -5 -11 4 -12 9 -3 19 6 8 17 14 23 13 7 0 6 -2 -1 -6z m546
-23 c11 -24 11 -24 -3 -6 -9 11 -16 24 -16 30 0 12 5 7 19 -24z m-789 -15 c11
-2 20 0 20 6 0 5 5 9 11 9 8 0 8 -4 0 -14 -13 -16 -48 -13 -65 5 -8 9 -8 10 1
5 7 -4 22 -9 33 -11z m1028 -37 c4 -84 4 -85 31 -85 21 0 22 1 10 11 -17 13
-35 51 -19 41 14 -9 12 9 -2 23 -17 17 -2 28 17 12 16 -14 21 -55 5 -45 -23
14 -8 -13 24 -42 45 -44 44 -81 -4 -105 -36 -18 -108 -26 -81 -9 20 13 6 42
-16 34 -16 -5 -16 -4 2 14 11 11 22 17 25 14 3 -3 14 -8 25 -9 30 -6 32 -12 3
-12 -21 0 -25 -4 -21 -20 6 -21 30 -22 26 -1 -2 6 2 11 7 11 6 0 10 -4 10 -10
0 -5 4 -10 10 -10 5 0 7 8 4 18 -5 14 -4 15 5 2 8 -11 11 -12 11 -2 0 7 5 10
10 7 6 -3 10 1 10 10 0 12 -5 15 -17 11 -15 -5 -15 -4 1 9 18 14 15 20 -7 16
-5 -1 -6 3 -3 8 4 5 2 12 -4 16 -5 3 -10 1 -10 -5 0 -6 -5 -8 -12 -3 -22 13
-42 9 -66 -16 -13 -13 -25 -21 -27 -19 -3 2 9 18 25 35 27 28 29 33 15 46 -11
11 -12 18 -4 23 8 4 7 9 -2 15 -9 5 -16 2 -21 -9 -5 -14 -7 -13 -7 6 -1 14 5
22 15 22 11 0 14 5 10 17 -5 12 5 29 20 33 0 0 1 -24 2 -52z m-1430 -23 c-6
-6 -118 48 -118 57 0 3 28 -7 61 -23 34 -17 59 -32 57 -34z m322 30 c-13 -14
-26 -23 -28 -20 -3 3 5 16 18 30 13 14 26 23 28 20 3 -3 -5 -16 -18 -30z m294
1 c-5 -27 -3 -34 9 -32 24 3 48 28 42 44 -3 9 0 12 9 9 8 -3 17 -1 19 6 2 7 7
10 10 7 3 -3 -29 -41 -70 -85 -42 -43 -74 -71 -70 -61 4 10 7 22 7 27 0 5 5 9
11 9 16 0 40 28 30 35 -6 3 -15 -3 -21 -12 -10 -16 -11 -16 -5 2 4 11 8 25 10
30 19 64 30 76 19 21z m776 18 c0 -8 -4 -12 -10 -9 -5 3 -11 1 -11 -4 -1 -6
-2 -15 -3 -20 0 -5 -5 -13 -10 -18 -5 -4 -6 -3 -2 4 3 6 1 15 -5 19 -8 5 -4
13 12 25 29 23 29 23 29 3z m-1645 -14 c-3 -5 -12 -10 -18 -10 -7 0 -6 4 3 10
19 12 23 12 15 0z m1578 3 c-16 -6 -17 -30 -1 -39 8 -5 9 -2 5 10 -4 10 -3 15
3 11 6 -4 8 -18 4 -33 -3 -15 -6 -32 -6 -39 -1 -7 -5 -10 -10 -7 -4 3 -4 13 2
24 14 26 -10 45 -34 27 -17 -13 -17 -14 -1 -30 9 -9 12 -17 6 -17 -5 0 -14 6
-18 14 -4 7 -15 15 -23 18 -9 3 -4 9 17 18 18 8 34 22 36 32 3 10 11 18 19 17
10 0 10 -2 1 -6z m-476 -88 c-4 -56 -2 -75 7 -75 8 0 11 -12 8 -35 -6 -47 -18
-53 -15 -7 2 36 2 36 -6 7 -6 -21 -9 1 -10 78 -1 74 2 107 10 107 9 0 10 -22
6 -75z m-1031 26 c-9 -13 -16 -14 -35 -2 -12 8 -13 12 -1 26 12 14 15 14 28 1
8 -8 11 -19 8 -25z m668 30 c3 -5 -1 -14 -8 -20 -12 -10 -13 -8 -9 8 6 23 9
25 17 12z m-764 -24 c-1 -19 -123 -98 -132 -84 -4 7 6 20 24 32 17 11 44 32
62 47 31 26 46 28 46 5z m655 -7 c-9 -17 -20 -28 -25 -25 -6 3 -8 0 -5 -7 2
-7 -1 -20 -8 -28 -18 -22 -108 -94 -143 -114 -31 -18 -32 -18 -95 10 -35 15
-71 35 -79 45 -8 10 -54 36 -102 58 -69 31 -88 44 -88 60 0 20 0 20 43 2 79
-35 212 -93 250 -109 22 -10 40 -26 43 -39 3 -13 10 -20 16 -17 5 3 7 11 5 17
-2 6 38 45 87 86 50 41 93 79 94 83 2 4 8 8 13 8 5 0 2 -14 -6 -30z m695 15
c7 -8 18 -15 26 -15 7 0 16 -4 19 -10 4 -6 -2 -7 -17 -1 -24 9 -32 11 -47 11
-5 0 -11 7 -15 15 -3 9 0 15 8 15 7 0 19 -7 26 -15z m-251 -195 c-3 -3 -9 -12
-13 -20 -3 -8 -4 -3 -2 13 2 15 0 27 -5 27 -4 0 -11 15 -14 33 -4 17 -16 49
-26 70 -16 29 -17 37 -5 37 7 0 24 9 37 19 l24 19 5 -96 c3 -53 2 -99 -1 -102z
m-276 123 c-13 -38 -26 -76 -28 -86 -6 -25 -76 -137 -87 -137 -5 0 -6 -6 -2
-12 5 -10 3 -9 -7 0 -12 11 -12 15 3 23 9 5 28 29 42 53 28 48 35 73 11 42
-12 -16 -15 -17 -15 -4 0 9 6 19 13 22 8 3 7 8 -6 16 -9 6 -15 16 -11 22 4 5
14 -1 23 -16 l18 -26 10 35 c7 21 7 35 2 35 -6 0 -1 10 11 22 20 22 29 64 10
53 -5 -3 -10 -2 -10 4 0 8 14 15 42 20 3 0 -5 -29 -19 -66z m827 57 c0 -5 -4
-10 -10 -10 -5 0 -10 5 -10 10 0 6 5 10 10 10 6 0 10 -4 10 -10z m-110 -30 c6
-11 15 -18 20 -15 6 3 7 -1 3 -10 -4 -12 -8 -13 -13 -5 -5 7 -13 9 -21 5 -9
-6 -11 -4 -6 8 4 12 2 14 -10 10 -12 -5 -14 -3 -8 8 8 12 6 12 -8 0 -10 -8
-21 -11 -24 -7 -9 9 16 26 39 26 10 0 22 -9 28 -20z m-755 0 c3 -5 1 -10 -4
-10 -6 0 -11 5 -11 10 0 6 2 10 4 10 3 0 8 -4 11 -10z m-34 -33 c-10 -9 -11
-8 -5 6 3 10 9 15 12 12 3 -3 0 -11 -7 -18z m277 -2 c15 -32 15 -48 2 -40 -6
4 -8 10 -6 14 9 13 -9 28 -42 34 -22 5 -31 3 -26 -4 3 -6 0 -9 -7 -8 -8 2 -25
-1 -38 -5 -19 -6 -21 -10 -10 -18 10 -6 7 -7 -9 -3 -17 5 -29 0 -48 -20 -13
-14 -24 -20 -24 -13 0 25 116 86 166 87 24 1 33 -5 42 -24z m559 3 c-3 -8 -6
-5 -6 6 -1 11 2 17 5 13 3 -3 4 -12 1 -19z m-1742 2 c-3 -5 -1 -10 4 -10 17 0
13 -30 -4 -36 -18 -7 -20 -54 -2 -54 9 0 8 -3 -2 -9 -11 -7 -9 -10 8 -16 21
-6 29 -25 11 -25 -5 0 -10 5 -10 11 0 6 -9 8 -21 4 -18 -6 -20 -4 -15 13 4 11
2 23 -4 27 -6 4 -10 -4 -10 -20 0 -14 -4 -24 -9 -21 -5 4 -22 1 -38 -6 -15 -6
-33 -12 -39 -13 -6 0 -23 -7 -38 -14 -18 -10 -30 -11 -37 -4 -12 12 66 74 122
97 32 13 92 66 75 66 -4 0 -4 5 -1 10 3 6 8 10 11 10 3 0 2 -4 -1 -10z m787
-28 c-6 -2 -8 -10 -5 -18 4 -11 9 -12 19 -3 10 8 13 6 11 -8 0 -11 -9 -19 -18
-19 -10 0 -17 3 -17 6 2 20 -4 30 -13 24 -6 -3 -3 6 7 21 12 18 20 23 23 14 2
-7 -1 -15 -7 -17z m1016 24 c-2 -1 -10 -7 -19 -14 -13 -10 -18 -10 -22 0 -3 8
5 14 20 14 13 1 23 1 21 0z m112 -16 c0 -4 -11 -5 -25 -2 -14 2 -23 8 -20 12
6 10 45 1 45 -10z m-1030 -10 c0 -5 -4 -10 -10 -10 -5 0 -10 5 -10 10 0 6 5
10 10 10 6 0 10 -4 10 -10z m235 0 c4 -6 11 -7 17 -4 7 4 8 2 4 -5 -5 -8 -12
-9 -19 -3 -7 5 -19 12 -27 15 -12 4 -12 6 2 6 9 1 20 -4 23 -9z m555 0 c0 -5
-2 -10 -4 -10 -3 0 -8 5 -11 10 -3 6 -1 10 4 10 6 0 11 -4 11 -10z m60 -5 c0
-8 -7 -15 -15 -15 -13 0 -14 3 -3 15 16 18 18 18 18 0z m-800 -15 c0 -5 -5
-10 -11 -10 -5 0 -7 5 -4 10 3 6 8 10 11 10 2 0 4 -4 4 -10z m156 -5 c-9 -9
-22 -12 -33 -8 -16 6 -15 8 7 14 39 11 43 10 26 -6z m74 5 c0 -5 -5 -10 -11
-10 -5 0 -7 5 -4 10 3 6 8 10 11 10 2 0 4 -4 4 -10z m624 -2 c10 -10 7 -17
-13 -35 -15 -14 -20 -22 -11 -21 8 2 21 10 28 18 8 8 11 9 7 3 -3 -7 -2 -13 4
-13 5 0 12 6 14 13 3 7 6 5 6 -5 1 -28 -91 -36 -130 -12 -20 12 -63 13 -76 2
-17 -14 -66 -1 -57 14 6 9 9 9 12 0 5 -16 24 -15 48 4 18 15 18 15 -3 5 -27
-13 -33 -14 -33 -2 0 21 42 22 85 1 29 -14 52 -19 67 -14 25 8 55 34 39 34 -6
0 -11 5 -11 10 0 13 8 13 24 -2z m-61 -12 c16 1 25 -1 21 -7 -7 -13 -63 -4
-78 12 -8 9 -6 9 9 1 11 -5 32 -8 48 -6z m-1691 -18 c-7 -7 -12 -8 -12 -2 0
14 12 26 19 19 2 -3 -1 -11 -7 -17z m717 0 c-10 -18 -9 -20 6 -14 16 6 16 4 4
-10 -9 -11 -15 -12 -17 -4 -2 6 -10 -1 -18 -15 -8 -15 -11 -32 -7 -39 11 -15
11 -56 1 -49 -5 2 -6 14 -2 26 6 19 3 18 -20 -7 -15 -15 -25 -35 -22 -43 4 -9
2 -11 -6 -7 -8 5 -9 2 -5 -9 3 -10 2 -17 -3 -17 -16 0 -12 46 5 60 8 7 24 33
36 59 22 50 46 91 55 91 2 0 0 -10 -7 -22z m451 13 c0 -5 2 -24 5 -42 6 -33 6
-33 -9 6 -19 48 -18 45 -6 45 6 0 10 -4 10 -9z m-180 -15 c0 -3 -4 -8 -10 -11
-5 -3 -10 -1 -10 4 0 6 5 11 10 11 6 0 10 -2 10 -4z m-64 -34 c-18 -16 -18
-16 -6 6 6 13 14 21 18 18 3 -4 -2 -14 -12 -24z m144 18 c0 -5 -2 -10 -4 -10
-3 0 -8 5 -11 10 -3 6 -1 10 4 10 6 0 11 -4 11 -10z m-569 -30 c48 -23 58 -31
45 -36 -12 -5 -22 -1 -28 10 -5 9 -13 14 -19 11 -5 -4 -9 -1 -9 6 0 8 -4 8
-15 -1 -13 -11 -14 -10 -10 2 3 8 0 15 -7 15 -8 0 -14 -13 -14 -28 -2 -25 0
-27 18 -18 16 9 19 8 13 -3 -6 -10 -5 -11 6 0 20 18 28 15 21 -10 -4 -18 -2
-20 16 -16 12 4 19 2 16 -3 -3 -5 2 -12 10 -15 22 -9 20 -19 -5 -21 -11 -1
-23 5 -26 13 -3 8 -12 14 -20 14 -8 0 -11 5 -7 13 4 6 4 9 -1 5 -4 -4 -15 -2
-23 5 -13 10 -14 9 -10 -3 2 -8 15 -21 29 -27 13 -7 19 -13 12 -13 -6 0 -10
-9 -8 -20 6 -29 15 -41 26 -35 5 4 16 -1 25 -10 9 -9 24 -15 33 -13 18 4 29
58 11 58 -7 0 -9 -8 -5 -22 7 -23 7 -23 -8 -3 -9 11 -11 22 -6 23 5 2 9 13 10
25 0 21 1 21 9 2 8 -19 9 -19 9 2 1 12 -2 23 -6 26 -5 2 -3 3 4 1 19 -4 48 22
34 30 -9 6 -7 12 6 22 10 7 21 14 25 14 11 0 -13 -51 -34 -76 -22 -25 -23 -55
-2 -95 l15 -30 101 2 c82 3 103 0 106 -11 3 -8 2 -12 -2 -9 -4 4 -19 -5 -33
-19 l-26 -26 -18 23 c-11 13 -19 18 -19 12 0 -16 33 -52 40 -43 3 4 22 18 42
29 26 15 40 18 44 11 4 -7 3 -8 -4 -4 -7 4 -12 2 -12 -3 0 -6 -7 -11 -16 -11
-9 0 -12 -5 -8 -11 4 -7 1 -10 -7 -7 -8 3 -21 -1 -31 -9 -14 -13 -20 -12 -47
2 -17 8 -31 13 -31 10 0 -3 -10 0 -22 6 -22 12 -22 12 -3 19 11 4 23 2 27 -4
5 -7 8 -5 8 5 0 10 -10 19 -25 21 -14 3 -25 1 -25 -6 0 -6 -5 -4 -10 4 -7 10
-10 11 -10 2 0 -9 -7 -9 -30 3 -16 9 -30 13 -30 10 0 -3 -11 2 -25 11 -14 9
-33 14 -43 12 -22 -6 -68 54 -57 72 4 6 -3 21 -14 32 -17 15 -21 30 -20 64 2
24 4 44 5 44 1 0 30 -13 65 -30z m493 -5 c-9 -14 -18 -25 -21 -25 -5 0 5 18
20 38 17 22 18 13 1 -13z m453 -1 c-9 -9 -28 6 -21 18 4 6 10 6 17 -1 6 -6 8
-13 4 -17z m172 5 c7 -3 -21 -15 -62 -28 -42 -13 -82 -21 -89 -18 -7 3 -1 6
14 6 15 1 34 8 42 17 9 8 21 12 28 8 8 -5 9 -2 4 11 -5 15 -4 16 9 5 12 -10
16 -9 21 5 4 9 10 12 13 7 3 -5 12 -11 20 -13z m31 11 c8 -5 11 -10 5 -10 -5
0 -17 5 -25 10 -8 5 -10 10 -5 10 6 0 17 -5 25 -10z m-540 -10 c4 7 13 9 20 5
9 -6 6 -11 -10 -20 -19 -10 -20 -13 -6 -18 9 -4 16 -1 16 5 0 9 3 9 12 0 19
-19 32 -14 17 6 -12 15 -12 16 2 5 9 -7 20 -9 24 -5 5 4 5 1 1 -6 -5 -7 -18
-18 -29 -23 -12 -6 -42 -21 -67 -34 -53 -28 -67 -31 -50 -10 24 29 1 27 -24
-1 -16 -18 -25 -24 -26 -15 0 11 -3 10 -13 -3 -9 -12 -22 -16 -38 -13 -23 4
-23 4 3 6 18 1 29 8 33 22 6 16 9 18 15 8 7 -10 13 -7 29 12 11 13 20 27 21
32 0 4 7 7 16 7 11 0 14 6 9 23 -6 20 -5 21 6 3 10 -16 9 -21 -5 -31 -9 -7
-16 -15 -16 -18 0 -11 70 -1 83 12 10 11 8 11 -11 1 -13 -6 -26 -9 -30 -6 -3
3 1 6 8 6 11 0 11 3 2 12 -7 7 -12 21 -11 33 0 12 3 15 6 6 4 -10 7 -11 13 -1z
m126 -35 c-6 -33 -32 -69 -40 -56 -4 5 2 25 13 44 11 19 17 38 13 43 -4 4 -1
4 6 0 6 -4 10 -18 8 -31z m-336 -6 c-22 -29 -22 -31 -4 -52 10 -12 12 -17 5
-10 -10 9 -20 9 -34 2 -16 -9 -15 -4 9 40 16 28 33 51 37 51 5 0 -1 -14 -13
-31z m124 -9 c-5 -5 -10 3 -11 18 -1 22 0 24 9 8 6 -10 6 -22 2 -26z m406 35
c0 -12 -32 -67 -36 -63 -7 7 17 68 27 68 5 0 9 -2 9 -5z m-830 -15 c0 -5 -8
-10 -17 -10 -15 0 -16 2 -3 10 19 12 20 12 20 0z m-655 -11 c11 -17 -1 -21
-15 -4 -8 9 -8 15 -2 15 6 0 14 -5 17 -11z m863 -3 c-7 -8 -17 -12 -22 -9 -4
3 -2 9 5 14 22 13 31 11 17 -5z m-888 -17 c0 -6 -4 -7 -10 -4 -5 3 -10 11 -10
16 0 6 5 7 10 4 6 -3 10 -11 10 -16z m637 -11 c-3 -8 -6 -5 -6 6 -1 11 2 17 5
13 3 -3 4 -12 1 -19z m-847 -34 c0 -3 -13 4 -30 16 -16 12 -30 24 -30 26 0 3
14 -4 30 -16 17 -12 30 -24 30 -26z m5 35 c11 -17 -1 -21 -15 -4 -8 9 -8 15
-2 15 6 0 14 -5 17 -11z m53 -15 c7 -14 17 -22 22 -19 6 3 7 -1 4 -10 -10 -25
-34 -13 -49 23 -11 26 -12 32 -1 32 7 0 18 -12 24 -26z m281 12 c20 -11 21
-14 7 -19 -10 -4 -14 -11 -11 -17 3 -5 2 -10 -3 -10 -15 0 -23 30 -9 30 7 0 3
7 -7 15 -24 18 -9 19 23 1z m921 -6 c0 -4 -7 -14 -16 -21 -15 -12 -16 -11 -9
10 5 18 4 22 -5 16 -8 -5 -11 -4 -6 3 7 12 36 5 36 -8z m210 10 c0 -5 -2 -10
-4 -10 -3 0 -8 5 -11 10 -3 6 -1 10 4 10 6 0 11 -4 11 -10z m-380 -9 c0 -6 -4
-12 -8 -15 -5 -3 -9 1 -9 9 0 8 4 15 9 15 4 0 8 -4 8 -9z m367 -16 c9 -25 -2
-27 -22 -5 -17 18 -17 20 -1 20 9 0 19 -7 23 -15z m-476 -10 c11 6 11 5 2 -5
-12 -14 -33 -6 -33 13 0 8 3 7 9 -2 5 -8 14 -10 22 -6z m-1065 -22 c-6 -6 -36
9 -36 18 0 5 9 4 20 -3 10 -7 18 -14 16 -15z m369 -4 c0 -35 -12 -47 -77 -80
-75 -38 -87 -37 -49 6 17 20 31 40 31 46 0 5 16 17 35 26 19 9 35 21 35 26 0
5 6 7 13 4 6 -2 12 -15 12 -28z m445 21 c0 -5 -4 -10 -9 -10 -6 0 -13 5 -16
10 -3 6 1 10 9 10 9 0 16 -4 16 -10z m294 -6 c3 -8 2 -12 -4 -9 -6 3 -10 10
-10 16 0 14 7 11 14 -7z m26 6 c0 -5 -2 -10 -4 -10 -3 0 -8 5 -11 10 -3 6 -1
10 4 10 6 0 11 -4 11 -10z m-217 -24 c4 -10 1 -13 -9 -9 -15 6 -19 23 -5 23 5
0 11 -7 14 -14z m321 2 c-3 -4 -17 -8 -32 -7 -23 0 -24 2 -7 8 25 10 45 10 39
-1z m-469 -8 c3 -5 -1 -10 -10 -10 -9 0 -13 5 -10 10 3 6 8 10 10 10 2 0 7 -4
10 -10z m272 -5 c0 -8 -4 -15 -9 -15 -4 0 -8 7 -8 15 0 8 4 15 8 15 5 0 9 -7
9 -15z m120 -10 c0 -8 -6 -16 -14 -19 -16 -7 -17 6 -1 22 15 15 15 15 15 -3z
m-991 -9 c10 -8 17 -17 14 -19 -3 -3 -16 3 -29 14 -27 22 -15 26 15 5z m859
-15 c-6 -5 -25 10 -25 20 0 5 6 4 14 -3 8 -7 12 -15 11 -17z m80 16 c13 4 16
3 11 -6 -4 -6 -23 -11 -41 -9 -27 2 -32 5 -23 15 7 9 14 10 23 3 7 -6 21 -7
30 -3z m-375 -7 c0 -5 -7 -10 -16 -10 -8 0 -12 5 -9 10 3 6 10 10 16 10 5 0 9
-4 9 -10z m80 -20 c0 -5 -2 -10 -4 -10 -3 0 -8 5 -11 10 -3 6 -1 10 4 10 6 0
11 -4 11 -10z m-120 -20 c0 -5 -7 -10 -15 -10 -8 0 -15 5 -15 10 0 6 7 10 15
10 8 0 15 -4 15 -10z m220 0 c0 -5 -7 -10 -16 -10 -8 0 -12 5 -9 10 3 6 10 10
16 10 5 0 9 -4 9 -10z m455 -26 c-22 -20 -30 -23 -36 -12 -12 19 -11 25 7 32
14 5 15 4 4 -9 -19 -23 4 -18 25 5 10 11 20 18 23 15 3 -3 -7 -16 -23 -31z
m-594 -4 c6 0 7 5 3 12 -5 7 -3 8 5 3 18 -10 -2 -27 -22 -19 -9 3 -14 11 -10
17 5 8 8 7 11 -1 2 -7 8 -12 13 -12z m529 3 c-8 -4 -19 -12 -25 -19 -13 -17
-65 -29 -65 -15 0 6 7 8 15 5 8 -4 15 -1 15 5 0 6 7 8 17 4 10 -4 14 -2 10 4
-7 12 8 21 33 21 13 0 13 0 0 -5z m-670 -13 c0 -5 -5 -10 -11 -10 -5 0 -7 5
-4 10 3 6 8 10 11 10 2 0 4 -4 4 -10z m270 -2 c0 -9 -36 -5 -46 5 -4 4 5 6 19
5 15 -1 27 -6 27 -10z m129 -24 c14 -12 -19 -1 -35 12 -18 14 -18 14 6 3 14
-6 27 -13 29 -15z m-314 -4 c3 -5 -1 -10 -10 -10 -9 0 -13 5 -10 10 3 6 8 10
10 10 2 0 7 -4 10 -10z m145 0 c18 -12 2 -12 -25 0 -13 6 -15 9 -5 9 8 0 22
-4 30 -9z m230 -21 c26 -15 29 -18 10 -13 -27 7 -71 34 -55 34 6 -1 26 -10 45
-21z m100 11 c0 -5 -7 -10 -16 -10 -8 0 -12 5 -9 10 3 6 10 10 16 10 5 0 9 -4
9 -10z m-610 -4 c0 -3 -4 -8 -10 -11 -5 -3 -10 -1 -10 4 0 6 5 11 10 11 6 0
10 -2 10 -4z m246 -5 c-4 -5 0 -12 6 -14 7 -3 3 -6 -9 -6 -14 -1 -23 5 -23 14
0 8 7 15 16 15 8 0 13 -4 10 -9z m388 -6 c-4 -8 -10 -15 -15 -15 -4 0 -6 7 -3
15 4 8 10 15 15 15 4 0 6 -7 3 -15z m-244 -5 c0 -5 -7 -10 -15 -10 -8 0 -15 5
-15 10 0 6 7 10 15 10 8 0 15 -4 15 -10z m-300 -10 c-8 -5 -24 -9 -35 -9 l-20
0 20 9 c11 5 27 9 35 9 13 1 13 0 0 -9z m-117 -7 c-7 -2 -19 -2 -25 0 -7 3 -2
5 12 5 14 0 19 -2 13 -5z m367 -4 c0 -4 -9 -7 -19 -6 -11 0 -18 4 -16 7 6 9
35 8 35 -1z m-130 -7 c0 -4 -9 -13 -20 -20 -22 -13 -27 -3 -8 16 14 14 28 16
28 4z m-290 -22 c0 -5 -7 -10 -16 -10 -8 0 -12 5 -9 10 3 6 10 10 16 10 5 0 9
-4 9 -10z m107 -17 c-3 -3 -11 -2 -17 2 -9 6 -9 10 1 16 14 8 27 -7 16 -18z
m263 12 c-7 -8 -17 -12 -22 -9 -6 4 -5 10 3 15 22 14 33 10 19 -6z m239 -2
c-18 -4 -34 -43 -18 -43 5 0 9 -7 9 -16 0 -12 -6 -15 -25 -10 -18 5 -25 2 -25
-9 0 -8 -4 -15 -10 -15 -16 0 -11 16 11 36 12 10 25 29 30 42 5 12 16 21 26
21 16 -1 16 -2 2 -6z m-377 -15 c-9 -9 -15 -9 -24 0 -9 9 -7 12 12 12 19 0 21
-3 12 -12z m118 -24 c0 -16 -9 -18 -30 -4 -13 9 -13 11 0 19 17 12 30 5 30
-15z m60 -20 c-15 -40 -246 -262 -295 -285 -54 -24 -58 -14 -10 24 22 17 101
91 175 164 74 72 136 130 138 129 1 -2 -2 -16 -8 -32z m-450 22 c0 -2 -7 -6
-15 -10 -8 -3 -15 -1 -15 4 0 6 7 10 15 10 8 0 15 -2 15 -4z m100 -6 c0 -5 -8
-10 -17 -10 -15 0 -16 2 -3 10 19 12 20 12 20 0z m130 6 c0 -11 -19 -15 -25
-6 -3 5 1 10 9 10 9 0 16 -2 16 -4z m20 -16 c0 -5 -5 -10 -11 -10 -5 0 -7 5
-4 10 3 6 8 10 11 10 2 0 4 -4 4 -10z m425 -1 c4 -6 13 -8 21 -5 12 4 12 2 4
-14 -6 -11 -9 -24 -6 -29 3 -5 -1 -14 -9 -21 -10 -9 -15 -9 -15 -1 0 6 4 11 9
11 11 0 9 32 -4 46 -5 7 -13 10 -17 7 -5 -2 -8 1 -8 6 0 14 17 14 25 0z m-336
-18 c9 -6 10 -11 2 -15 -13 -8 -31 1 -31 15 0 11 11 11 29 0z m-389 -5 c0 -9
-30 -14 -35 -6 -4 6 3 10 14 10 12 0 21 -2 21 -4z m690 -11 c5 3 10 1 10 -5 0
-17 -43 -8 -48 10 -5 13 -3 13 11 2 9 -8 21 -11 27 -7z m-593 -9 c0 -8 -6 -12
-14 -9 -7 3 -10 9 -7 14 8 14 21 11 21 -5z m150 -8 c2 -19 -13 -25 -19 -8 -2
6 -13 12 -25 13 -31 2 -19 13 14 13 21 0 29 -5 30 -18z m-303 -13 c4 -10 -1
-15 -14 -15 -20 0 -26 11 -13 23 10 11 20 8 27 -8z m407 1 c5 3 9 1 9 -4 0
-15 -25 -21 -41 -11 -12 8 -12 10 1 19 10 6 16 6 18 0 2 -6 8 -8 13 -4z m292
7 c-7 -2 -21 -2 -30 0 -10 3 -4 5 12 5 17 0 24 -2 18 -5z m23 -11 c-2 -4 -1
-14 5 -22 7 -12 9 -9 10 10 0 14 3 19 6 12 2 -6 9 -10 14 -6 5 3 9 0 9 -5 0
-6 -5 -11 -11 -11 -5 0 -8 -3 -5 -8 2 -4 -12 -7 -32 -7 -36 0 -48 7 -39 23 2
4 2 1 1 -5 -2 -7 3 -13 10 -13 8 0 16 9 19 20 3 11 8 20 12 20 3 0 4 -4 1 -8z
m-83 -29 c-10 -10 -14 -14 -7 -10 7 4 15 3 19 -3 3 -5 2 -10 -4 -10 -5 0 -8
-9 -6 -20 2 -12 0 -18 -6 -15 -5 4 -7 10 -4 15 3 4 0 10 -7 12 -7 3 -28 -12
-48 -31 -19 -20 -38 -36 -42 -37 -5 -1 -11 -2 -15 -3 -5 -1 -2 -5 6 -10 12 -7
12 -13 3 -24 -13 -15 -6 -27 14 -27 8 0 11 6 7 17 -5 12 -3 14 8 8 11 -7 11
-5 -1 10 -9 11 -10 16 -2 11 8 -5 15 2 22 18 5 14 12 26 16 26 3 0 4 -7 0 -15
-3 -9 0 -15 10 -15 12 0 15 7 12 25 -3 14 -4 25 -3 25 0 0 11 -13 23 -29 20
-28 20 -29 2 -24 -12 3 -20 0 -20 -7 0 -7 -8 -9 -21 -5 -14 5 -20 3 -18 -7 4
-27 -13 -48 -41 -48 -26 0 -28 3 -24 33 4 30 4 31 -11 13 -8 -11 -15 -14 -15
-7 0 19 37 54 49 46 6 -3 11 -1 11 5 0 14 100 113 107 106 3 -3 -3 -13 -14
-23z m-548 6 c10 -14 1 -21 -19 -13 -9 3 -13 10 -10 15 7 12 21 11 29 -2z
m145 0 c0 -5 6 -7 13 -3 6 4 8 3 4 -1 -4 -5 -14 -10 -21 -11 -7 -1 -23 -5 -35
-9 -14 -4 -21 -2 -21 6 0 7 3 10 6 6 4 -3 13 0 21 8 17 18 33 19 33 4z m-299
-13 c-9 -11 -9 -15 1 -19 7 -3 9 -6 3 -6 -5 0 -16 3 -24 8 -16 11 -6 31 16 31
12 0 13 -3 4 -14z m414 4 c3 -5 1 -10 -5 -10 -6 0 -8 -5 -4 -12 4 -7 3 -8 -4
-4 -14 9 -16 36 -3 36 6 0 13 -4 16 -10z m360 -30 c-3 -5 -13 -10 -21 -10 -8
0 -13 -3 -13 -7 3 -20 -2 -27 -10 -14 -7 10 -4 19 7 28 20 15 46 17 37 3z m11
-26 c-19 -19 -21 -11 -4 16 7 11 14 16 16 10 2 -5 -4 -17 -12 -26z m-693 7
c-4 -15 14 -14 20 2 4 9 6 9 6 0 1 -19 -18 -26 -34 -13 -18 15 -20 33 -2 27 6
-2 11 -10 10 -16z m127 -1 c0 -5 -4 -10 -9 -10 -6 0 -13 5 -16 10 -3 6 1 10 9
10 9 0 16 -4 16 -10z m130 -4 c0 -8 -10 -13 -24 -13 -20 0 -22 2 -13 13 16 17
37 18 37 0z m719 -9 c-2 -1 -13 -9 -24 -17 -19 -14 -19 -14 -6 3 7 9 18 17 24
17 6 0 8 -1 6 -3z m-871 -20 c-18 -19 -57 -27 -65 -15 -3 7 -1 8 5 4 7 -4 12
-3 12 3 0 8 13 13 53 20 5 0 2 -5 -5 -12z m2221 -192 c50 -118 52 -127 39
-146 -8 -11 -9 -11 -5 2 3 9 -1 29 -9 44 -8 15 -14 33 -14 41 0 7 -8 18 -17
23 -10 6 -13 11 -6 11 21 0 2 30 -21 31 -16 1 -17 2 -3 6 18 5 24 23 7 23 -5
0 -9 3 -8 8 1 4 -4 24 -12 44 -10 26 -17 34 -23 25 -5 -7 -6 -3 -2 12 5 17 4
21 -5 16 -9 -5 -10 -1 -5 16 7 23 7 23 -12 7 -11 -10 -25 -18 -31 -18 -7 0
-12 -5 -12 -11 0 -5 -4 -8 -9 -5 -5 3 -7 15 -4 27 4 14 8 17 13 8 11 -17 41
-3 47 22 5 17 10 11 28 -32 13 -30 41 -99 64 -154z m-104 185 c-3 -5 -12 -10
-18 -10 -7 0 -6 4 3 10 19 12 23 12 15 0z m-2025 -10 c0 -5 -7 -10 -16 -10 -8
0 -12 5 -9 10 3 6 10 10 16 10 5 0 9 -4 9 -10z m482 -2 c-9 -9 -15 -9 -24 0
-9 9 -7 12 12 12 19 0 21 -3 12 -12z m1481 -19 c-6 -6 -9 -19 -6 -28 3 -10 2
-12 -4 -5 -4 6 -21 11 -38 10 -22 -2 -30 -7 -30 -22 0 -37 15 -46 42 -24 14
11 30 17 37 13 7 -5 5 -9 -6 -11 -10 -2 -18 -11 -18 -20 0 -15 -2 -15 -10 -2
-5 8 -10 13 -11 10 0 -3 -3 -16 -5 -30 -4 -19 -2 -22 8 -12 6 6 16 12 22 12 5
0 1 -7 -10 -15 -12 -9 -14 -14 -6 -15 7 0 11 -4 7 -9 -7 -12 29 -33 40 -23 5
4 5 1 1 -6 -4 -7 -12 -10 -17 -7 -14 9 -11 -12 7 -46 8 -17 13 -33 10 -36 -6
-6 -36 63 -36 83 0 8 -4 14 -8 14 -10 0 -58 100 -54 112 1 4 -3 8 -9 8 -5 0
-8 4 -5 9 4 5 3 11 -1 14 -5 2 -2 2 5 1 6 -2 12 1 12 6 0 5 8 9 18 9 38 1 52
5 52 13 0 4 5 8 12 8 9 0 9 -3 1 -11z m-2126 -22 c0 -16 -34 -20 -43 -5 -8 12
14 28 31 22 6 -3 12 -11 12 -17z m798 13 c-3 -5 -1 -10 4 -10 6 0 11 -5 11
-11 0 -8 -4 -9 -13 0 -8 6 -18 7 -23 3 -4 -4 -2 1 5 11 14 18 26 24 16 7z
m-678 -17 c3 -7 -3 -9 -16 -6 -12 3 -21 10 -21 15 0 13 32 6 37 -9z m293 8 c0
-4 -16 -23 -35 -42 -19 -19 -35 -41 -35 -49 0 -19 -49 -80 -50 -61 0 11 -5 10
-20 -4 -11 -10 -17 -21 -15 -25 3 -4 -2 -13 -10 -20 -13 -11 -15 -9 -12 7 1
11 9 27 17 35 8 9 46 50 85 92 73 80 75 81 75 67z m-626 -33 c17 -18 28 -29
24 -23 -16 19 -7 27 12 10 22 -20 44 -80 36 -100 -2 -7 -18 -13 -33 -13 -15 0
-47 -3 -70 -7 -39 -6 -43 -5 -43 14 0 12 6 21 15 21 9 0 12 -6 9 -15 -4 -8 -1
-15 6 -15 6 0 9 4 6 8 -6 11 4 26 29 41 l20 13 -20 -8 c-34 -12 -82 -16 -88
-7 -2 4 -1 18 4 31 7 17 16 22 46 23 34 0 36 1 16 11 -17 8 -28 7 -48 -6 -14
-9 -25 -13 -25 -10 0 13 33 44 47 44 7 0 13 5 13 10 0 17 11 11 44 -22z m773
16 c-3 -3 -12 -4 -19 -1 -8 3 -5 6 6 6 11 1 17 -2 13 -5z m120 -22 c-15 -17
-15 -20 0 -42 9 -13 11 -20 5 -16 -25 15 -31 42 -16 65 9 12 19 20 22 17 3 -3
-2 -14 -11 -24z m40 8 c1 -11 -2 -22 -6 -24 -6 -4 -7 26 -2 42 3 8 7 -1 8 -18z
m38 10 c3 -5 -1 -20 -9 -31 -15 -22 -15 -22 -13 -1 0 11 5 18 9 16 4 -3 8 -1
8 5 0 5 -6 12 -12 14 -10 4 -10 6 -1 6 6 1 15 -3 18 -9z m-335 -4 c0 -2 -8
-10 -17 -17 -16 -13 -17 -12 -4 4 13 16 21 21 21 13z m1677 -2 c-3 -3 -12 -4
-19 -1 -8 3 -5 6 6 6 11 1 17 -2 13 -5z m117 -44 c-6 -6 -10 -3 -10 10 0 13 4
16 10 10 7 -7 7 -13 0 -20z m-2128 5 c-8 -8 -21 -15 -28 -16 -7 0 -4 -4 7 -9
15 -6 16 -9 4 -9 -23 -1 -30 9 -18 30 5 11 19 19 30 19 18 0 19 -2 5 -15z
m406 8 c-6 -2 -10 -9 -6 -14 8 -14 -6 -10 -22 6 -14 13 -12 15 13 14 15 0 22
-3 15 -6z m1668 -8 c0 -8 -2 -15 -4 -15 -2 0 -6 7 -10 15 -3 8 -1 15 4 15 6 0
10 -7 10 -15z m-1781 -16 c-22 -13 -31 -11 -17 5 7 8 17 12 22 9 4 -3 2 -9 -5
-14z m137 -4 c-1 -8 -5 -17 -8 -21 -5 -4 -4 16 1 34 3 9 9 -1 7 -13z m1721 0
c0 -8 -4 -12 -9 -9 -5 3 -6 10 -3 15 9 13 12 11 12 -6z m-2567 -14 c0 -10 7
-21 15 -25 8 -3 15 -17 15 -31 0 -17 5 -25 17 -25 9 0 25 -7 35 -17 17 -15 17
-17 2 -35 -25 -26 -39 -23 -85 23 -38 38 -39 38 -24 10 19 -38 4 -41 -24 -5
-23 29 -20 41 13 54 17 7 17 9 4 9 -23 1 -23 19 -1 43 21 23 33 23 33 -1z
m-114 -39 c-15 -15 -15 -15 -4 10 7 15 15 23 17 17 2 -6 -4 -18 -13 -27z m54
28 c0 -5 -2 -10 -4 -10 -3 0 -8 5 -11 10 -3 6 -1 10 4 10 6 0 11 -4 11 -10z
m2570 0 c0 -5 -4 -10 -9 -10 -5 0 -12 -8 -14 -17 -4 -14 -5 -13 -6 4 0 12 -9
24 -18 26 -10 3 -3 5 15 6 17 0 32 -3 32 -9z m-1443 -22 c-3 -8 -6 -5 -6 6 -1
11 2 17 5 13 3 -3 4 -12 1 -19z m-358 3 c9 -6 11 -15 6 -27 -8 -17 -9 -17 -13
4 -2 13 -9 21 -15 19 -7 -2 -11 -11 -9 -21 2 -9 -2 -16 -8 -16 -11 0 -13 11
-4 34 7 18 22 20 43 7z m1756 -1 c3 -5 2 -10 -4 -10 -5 0 -13 5 -16 10 -3 6
-2 10 4 10 5 0 13 -4 16 -10z m-1682 -30 c3 -12 0 -20 -7 -20 -6 0 -12 9 -13
20 -1 11 2 20 6 20 5 0 11 -9 14 -20z m-28 -9 c-3 -5 -1 -12 5 -16 5 -3 10
-10 10 -16 0 -5 -9 -4 -19 3 -15 9 -17 15 -9 25 12 15 22 18 13 4z m-625 -16
c-12 -15 -30 -12 -30 6 0 5 10 9 21 9 18 0 19 -2 9 -15z m121 -1 c7 -8 30 -24
51 -35 21 -11 36 -24 33 -29 -3 -5 0 -12 6 -16 8 -4 9 -3 5 4 -11 18 2 14 25
-7 13 -12 33 -18 54 -17 18 1 31 -2 29 -6 -3 -5 4 -8 15 -8 13 0 18 -6 16 -17
-2 -10 -4 -20 -4 -22 -1 -3 -7 4 -15 15 -11 14 -14 15 -13 4 1 -8 -3 -32 -7
-53 -5 -24 -4 -42 3 -51 9 -10 8 -15 -4 -20 -12 -4 -15 3 -15 32 0 20 4 53 9
73 8 35 7 36 -20 37 -16 0 -29 -4 -29 -9 0 -5 -6 -9 -14 -9 -10 0 -16 -13 -18
-42 -2 -26 -8 -43 -18 -45 -10 -3 -11 -2 -3 4 13 9 21 93 10 110 -4 6 -24 7
-52 3 -25 -4 -43 -5 -40 -2 2 3 -3 11 -13 18 -16 13 -16 13 3 14 18 0 18 1 -4
17 -22 15 -23 17 -7 29 11 8 13 14 7 19 -6 3 -14 -1 -17 -9 -3 -9 -10 -16 -15
-16 -5 0 -3 11 3 25 13 29 21 31 39 9z m394 6 c3 -5 -3 -10 -14 -10 -12 0 -21
5 -21 10 0 6 6 10 14 10 8 0 18 -4 21 -10z m-493 -42 c-7 -7 -12 -8 -12 -2 0
14 12 26 19 19 2 -3 -1 -11 -7 -17z m423 2 c8 7 15 8 15 2 0 -5 -8 -13 -17
-16 -14 -6 -15 -9 -4 -16 8 -4 21 -6 30 -2 9 3 13 2 10 -2 -10 -10 -49 -16
-49 -7 0 15 -44 21 -52 8 -13 -21 -9 -30 8 -17 12 11 18 10 32 -3 12 -12 13
-17 3 -17 -7 0 -11 -6 -8 -14 4 -10 1 -13 -9 -9 -11 4 -12 8 -3 19 7 8 9 17 6
20 -10 10 -34 -20 -31 -39 1 -9 -2 -15 -7 -11 -5 3 -7 9 -4 14 3 5 -3 13 -12
19 -10 6 -13 11 -7 11 6 0 17 13 24 29 7 19 17 28 26 24 10 -4 13 0 8 13 -5
18 -5 18 10 0 13 -16 18 -17 31 -6z m115 -6 c6 -14 14 -22 20 -19 6 3 7 -1 4
-10 -6 -14 -8 -14 -25 1 -11 9 -19 25 -19 36 0 26 9 22 20 -8z m1870 16 c0 -5
-4 -10 -10 -10 -5 0 -10 5 -10 10 0 6 5 10 10 10 6 0 10 -4 10 -10z m-2344
-27 c10 -10 12 -19 6 -21 -6 -2 -8 -10 -5 -18 6 -17 -24 -31 -39 -16 -6 6 -2
16 13 31 13 11 18 21 13 21 -15 0 -66 -59 -59 -69 2 -5 -2 -11 -10 -15 -10 -4
-15 1 -15 14 0 11 4 20 9 20 5 0 19 16 32 35 27 40 31 41 55 18z m-291 -23
c-8 -9 -13 -24 -10 -33 4 -8 2 -18 -4 -22 -15 -9 -14 58 1 73 18 18 31 2 13
-18z m731 14 c19 -15 19 -15 -1 -6 -11 5 -27 12 -35 15 -13 5 -13 6 1 6 8 1
24 -6 35 -15z m1874 6 c0 -5 -2 -10 -4 -10 -3 0 -8 5 -11 10 -3 6 -1 10 4 10
6 0 11 -4 11 -10z m70 -23 c10 -4 7 -6 -7 -6 -13 -1 -23 4 -23 10 0 6 -7 9
-14 6 -10 -4 -13 -1 -9 9 5 13 8 13 22 1 9 -8 23 -17 31 -20z m-2615 13 c3 -6
-1 -7 -9 -4 -18 7 -21 14 -7 14 6 0 13 -4 16 -10z m145 -5 c-7 -8 -17 -15 -22
-15 -6 0 -5 7 2 15 7 8 17 15 22 15 6 0 5 -7 -2 -15z m-69 -21 c23 -14 39 -28
36 -30 -3 -3 -26 9 -53 25 -26 17 -42 31 -36 31 7 0 31 -12 53 -26z m2430 -11
l10 -28 18 24 c10 13 24 21 32 18 11 -4 11 -6 -1 -6 -17 -1 -45 -40 -42 -58 1
-6 -3 -15 -9 -19 -7 -4 -10 -1 -7 7 3 8 -1 28 -9 46 -14 35 -16 43 -8 43 3 0
10 -12 16 -27z m-1795 5 c4 -6 2 -8 -4 -4 -5 3 -12 1 -14 -5 -2 -7 -8 -7 -15
3 -10 11 -8 14 7 15 11 1 23 -3 26 -9z m2016 -52 c-3 -6 -5 -21 -4 -33 3 -18
-1 -20 -18 -16 -12 3 -17 9 -12 12 16 10 25 58 13 65 -6 4 -11 15 -11 24 0 12
6 8 19 -12 11 -17 17 -35 13 -40z m-2069 40 c12 -9 14 -16 7 -21 -5 -3 -7 -11
-4 -17 4 -7 2 -8 -5 -4 -6 4 -9 12 -6 17 4 5 -1 12 -9 15 -16 6 -22 24 -8 24
4 0 15 -7 25 -14z m1924 -4 c-10 -10 -17 -24 -17 -30 0 -7 -4 -12 -10 -12 -5
0 -11 -10 -11 -22 -1 -18 -2 -19 -6 -5 -4 16 40 87 54 87 3 0 -1 -8 -10 -18z
m-2387 -12 c11 -7 11 -10 2 -10 -7 0 -10 -4 -7 -10 3 -5 2 -10 -3 -10 -5 0
-12 9 -15 20 -6 22 0 25 23 10z m144 -5 c-10 -8 -23 -14 -29 -14 -5 0 -1 6 9
14 11 8 24 15 30 15 5 0 1 -7 -10 -15z m-244 -51 c0 -2 -8 -4 -18 -4 -10 0
-24 -6 -30 -12 -14 -14 -64 -19 -55 -6 2 5 14 6 25 2 13 -4 18 -2 14 4 -3 5 1
13 10 16 12 5 14 13 9 33 l-7 28 26 -28 c14 -16 26 -30 26 -33z m135 46 c-8
-13 18 -13 31 -1 5 6 9 -5 10 -32 l0 -41 -12 29 c-7 17 -13 26 -14 21 0 -5 -7
-3 -15 4 -13 11 -12 30 1 30 3 0 2 -4 -1 -10z m2365 0 c0 -5 -5 -10 -11 -10
-5 0 -7 5 -4 10 3 6 8 10 11 10 2 0 4 -4 4 -10z m93 -5 c-3 -9 -8 -14 -10 -11
-3 3 -2 9 2 15 9 16 15 13 8 -4z m-2657 -24 c-8 -12 -46 -21 -46 -11 0 9 18
18 38 19 7 1 11 -3 8 -8z m180 -39 c-11 -10 -15 4 -8 28 l7 25 3 -23 c2 -13 1
-26 -2 -30z m-26 29 c0 -5 -10 -11 -22 -14 -13 -2 -32 -8 -42 -12 -14 -6 -17
-5 -12 3 4 6 21 16 39 21 18 5 33 10 35 10 1 1 2 -3 2 -8z m330 -5 c0 -3 -4
-8 -10 -11 -5 -3 -10 -1 -10 4 0 6 5 11 10 11 6 0 10 -2 10 -4z m2245 -68 c-4
-15 -11 -31 -17 -35 -8 -4 -9 0 -3 13 5 10 8 37 7 59 -1 36 0 37 9 16 5 -14 7
-37 4 -53z m-2797 48 c-7 -8 -15 -12 -17 -11 -5 6 10 25 20 25 5 0 4 -6 -3
-14z m459 -18 c-3 -7 -5 -2 -5 12 0 14 2 19 5 13 2 -7 2 -19 0 -25z m148 22
c-3 -5 -11 -10 -17 -10 -6 0 -19 -7 -28 -15 -16 -14 -18 -14 -24 2 -4 9 -4 14
0 11 3 -4 13 -1 21 7 16 17 58 21 48 5z m-263 -15 c0 -5 -5 -11 -11 -13 -6 -2
-11 4 -11 13 0 9 5 15 11 13 6 -2 11 -8 11 -13z m-247 -15 c-10 -11 -20 -18
-23 -15 -7 6 18 35 31 35 5 0 2 -9 -8 -20z m88 0 c-3 -11 -7 -20 -9 -20 -2 0
-4 9 -4 20 0 11 4 20 9 20 5 0 7 -9 4 -20z m100 11 c4 -1 7 -12 7 -25 0 -14 4
-27 9 -30 4 -3 6 6 3 21 -3 17 -1 24 6 19 6 -4 8 -14 5 -23 -5 -12 -2 -15 10
-10 9 3 19 2 22 -3 4 -6 -3 -10 -14 -10 -11 0 -25 -8 -30 -17 -10 -17 -10 -17
-11 -1 0 9 -5 20 -11 24 -8 4 -9 -1 -4 -17 7 -21 7 -22 -9 -6 -9 9 -24 14 -34
11 -9 -2 -2 3 16 11 41 19 43 45 3 45 -17 0 -32 4 -35 9 -5 7 26 8 67 2z
m2287 -1 c0 -5 -5 -10 -11 -10 -5 0 -7 5 -4 10 3 6 8 10 11 10 2 0 4 -4 4 -10z
m-2139 -52 c-8 -20 -9 -18 -8 15 1 24 4 32 9 23 4 -8 4 -25 -1 -38z m155 4
c-11 -10 -15 4 -8 28 l7 25 3 -23 c2 -13 1 -26 -2 -30z m-540 31 c-4 -4 -11
-8 -14 -7 -4 0 -16 -8 -26 -18 -22 -20 -36 -23 -36 -8 0 6 7 10 15 10 8 0 15
4 15 10 0 5 -8 7 -17 4 -12 -4 -14 -3 -6 3 15 11 80 16 69 6z m2624 -3 c0 -5
-5 -10 -11 -10 -5 0 -7 5 -4 10 3 6 8 10 11 10 2 0 4 -4 4 -10z m-2297 -7 c-7
-2 -19 -2 -25 0 -7 3 -2 5 12 5 14 0 19 -2 13 -5z m93 -19 c-4 -9 -9 -15 -11
-12 -3 3 -3 13 1 22 4 9 9 15 11 12 3 -3 3 -13 -1 -22z m-425 -15 c-17 -19
-23 -21 -34 -9 -6 7 -7 10 -1 7 6 -4 19 2 29 13 10 11 20 18 23 16 2 -3 -5
-15 -17 -27z m359 16 c0 -8 -4 -15 -10 -15 -5 0 -7 7 -4 15 4 8 8 15 10 15 2
0 4 -7 4 -15z m158 -5 c3 -7 0 -10 -6 -6 -6 3 -12 -4 -15 -16 -3 -16 -5 -13
-6 10 -1 33 17 42 27 12z m1992 -5 c10 -14 10 -17 1 -8 -11 9 -19 5 -39 -18
-13 -16 -27 -28 -29 -25 -3 3 7 17 21 31 14 14 26 31 26 37 0 6 1 9 3 7 1 -2
9 -13 17 -24z m-2380 -5 c-6 -11 -12 -20 -14 -20 -2 0 -2 9 1 20 3 11 9 20 15
20 5 0 4 -9 -2 -20z m2549 -14 c9 -11 9 -16 -1 -22 -7 -4 -10 -4 -6 1 4 4 3
14 -3 22 -6 7 -9 13 -6 13 2 0 10 -6 16 -14z m34 -4 c-2 -10 -14 -31 -27 -46
-19 -25 -22 -26 -22 -8 0 11 5 20 10 19 5 -1 16 10 23 26 16 31 23 35 16 9z
m-2383 -2 c0 -5 -4 -10 -10 -10 -5 0 -10 5 -10 10 0 6 5 10 10 10 6 0 10 -4
10 -10z m40 0 c0 -5 -7 -10 -16 -10 -8 0 -12 5 -9 10 3 6 10 10 16 10 5 0 9
-4 9 -10z m105 -20 c11 -17 -5 -11 -28 11 l-22 21 22 -11 c12 -6 25 -16 28
-21z m-257 -3 c2 -9 -2 -17 -8 -17 -6 0 -8 5 -5 10 3 6 -4 10 -17 10 -18 0
-20 2 -8 10 20 13 34 7 38 -13z m82 13 c0 -5 -5 -10 -11 -10 -6 0 -9 -7 -6
-14 4 -10 1 -13 -9 -9 -7 3 -14 1 -14 -5 0 -17 24 -29 55 -26 17 1 24 0 18 -3
-10 -3 -10 -10 -2 -25 6 -11 8 -22 5 -26 -3 -3 -6 1 -7 9 0 8 -4 6 -9 -6 -7
-17 -9 -17 -9 -2 -1 19 -21 24 -22 5 -2 -60 -8 -91 -16 -99 -7 -7 -13 -7 -17
-1 -3 6 1 17 9 25 19 20 19 26 -1 23 -22 -3 -35 -28 -23 -42 7 -8 6 -14 -1
-19 -6 -3 -8 -11 -4 -16 3 -6 7 -21 9 -35 2 -20 -1 -23 -18 -18 -14 4 -18 2
-14 -7 2 -8 9 -13 15 -12 6 2 9 -3 6 -11 -3 -8 -1 -17 4 -20 5 -3 12 3 15 14
3 11 11 20 19 20 10 0 11 -2 0 -9 -7 -4 -14 -18 -15 -29 -2 -26 -10 -28 -27
-7 -7 8 -20 15 -29 16 -9 0 -11 3 -4 5 13 6 6 34 -8 34 -5 0 -9 -8 -9 -17 0
-14 -2 -15 -9 -5 -6 10 -10 10 -21 -3 -11 -14 -7 -19 13 -16 5 1 6 -3 3 -8 -4
-5 -2 -12 2 -15 5 -3 7 -17 5 -31 -3 -13 -10 -22 -15 -19 -6 4 -15 0 -20 -7
-8 -11 -9 -11 -5 2 3 9 1 22 -4 30 -5 9 -3 16 7 19 14 5 14 8 -2 20 -11 9 -15
10 -10 3 4 -7 2 -14 -3 -14 -6 -1 -15 -3 -21 -4 -5 -1 -15 -3 -21 -4 -5 0 -8
-5 -5 -10 3 -5 -10 -7 -29 -5 -24 2 -33 -1 -29 -8 4 -7 3 -8 -5 -4 -6 4 -8 12
-5 18 4 6 -1 17 -11 25 -11 7 -13 13 -6 13 7 0 9 5 6 10 -3 6 -10 10 -15 10
-12 0 -5 -33 8 -38 7 -2 12 -8 12 -13 0 -6 -4 -8 -8 -5 -5 3 -9 -2 -9 -10 0
-8 11 -17 24 -20 13 -4 23 -10 23 -15 0 -5 -3 -8 -8 -7 -4 1 -18 -4 -31 -11
-13 -7 -34 -11 -48 -8 -19 3 -23 1 -18 -11 5 -13 3 -13 -13 1 -10 9 -22 14
-25 10 -4 -3 -7 -4 -7 -1 0 3 8 12 17 19 9 8 14 9 10 3 -4 -7 7 -11 31 -11 20
0 28 2 17 4 -11 3 -28 12 -38 21 -16 14 -20 14 -28 2 -9 -13 -10 -13 -6 0 4
15 10 16 61 4 29 -7 29 -7 23 32 -4 23 -15 45 -27 53 -12 8 -20 24 -20 42 0
15 -4 31 -10 34 -18 11 -10 23 14 21 17 -1 21 -5 15 -12 -6 -7 6 -28 33 -60
24 -27 46 -51 51 -52 4 -2 5 -7 3 -11 -3 -4 4 -8 15 -8 18 -2 59 22 141 78 15
11 32 19 38 19 22 0 8 28 -41 77 -41 42 -55 51 -69 43 -12 -7 -21 -6 -29 4 -8
9 -3 20 19 41 17 16 30 23 30 17 0 -22 48 -13 68 13 14 17 22 21 25 13 3 -7 6
2 6 20 1 17 6 32 12 32 6 0 9 -8 5 -17 -3 -10 4 -6 16 10 22 28 38 35 38 17z
m125 0 c3 -5 1 -10 -4 -10 -6 0 -11 5 -11 10 0 6 2 10 4 10 3 0 8 -4 11 -10z
m-77 -17 c-10 -2 -18 -11 -18 -19 0 -8 -4 -14 -10 -14 -12 0 -12 3 -4 24 3 9
16 15 28 15 16 -1 17 -2 4 -6z m52 -14 c0 -6 -4 -7 -10 -4 -5 3 -10 11 -10 16
0 6 5 7 10 4 6 -3 10 -11 10 -16z m-210 -5 c11 -12 10 -18 -3 -32 -13 -12 -17
-13 -17 -3 0 11 -3 11 -15 1 -12 -10 -16 -9 -21 4 -15 40 29 64 56 30z m180
-4 c0 -5 -8 -10 -17 -10 -15 0 -16 2 -3 10 19 12 20 12 20 0z m54 -5 c3 -8 1
-15 -4 -15 -6 0 -10 7 -10 15 0 8 2 15 4 15 2 0 6 -7 10 -15z m-370 -5 c-5 -5
-25 -12 -44 -15 l-35 -5 35 14 c42 18 58 20 44 6z m2358 -13 c-7 -8 -8 -18 -4
-22 4 -5 2 -5 -4 -2 -6 4 -29 -10 -50 -29 -21 -19 -59 -52 -84 -72 -25 -20
-51 -43 -57 -51 -7 -8 -15 -12 -18 -9 -3 3 27 32 67 65 40 33 91 77 113 99 38
37 61 51 37 21z m-2462 -7 c0 -5 -4 -10 -9 -10 -6 0 -13 5 -16 10 -3 6 1 10 9
10 9 0 16 -4 16 -10z m420 -11 c0 -6 -4 -7 -10 -4 -5 3 -10 11 -10 16 0 6 5 7
10 4 6 -3 10 -11 10 -16z m30 -1 c0 -19 -2 -20 -10 -8 -13 19 -13 30 0 30 6 0
10 -10 10 -22z m2214 -34 c-27 -24 -51 -41 -54 -38 -3 3 7 15 23 26 15 11 24
24 21 29 -3 5 -2 9 3 8 16 -4 43 13 36 24 -4 6 -1 7 6 2 9 -5 -2 -20 -35 -51z
m-2194 1 c-6 -30 -8 -33 -9 -13 -1 25 8 62 14 56 2 -2 -1 -21 -5 -43z m-50 6
c0 -6 -4 -13 -10 -16 -5 -3 -10 1 -10 9 0 9 5 16 10 16 6 0 10 -4 10 -9z m13
-71 c-13 -13 -14 -13 -7 0 4 8 7 28 7 45 l-2 30 9 -30 c7 -23 6 -33 -7 -45z
m-363 25 c-7 -9 -19 -14 -27 -11 -8 3 -11 1 -8 -4 4 -6 1 -9 -6 -8 -7 2 -13
-2 -14 -9 0 -6 -4 -15 -9 -20 -5 -5 -6 -3 -2 5 4 6 3 12 -2 12 -6 0 -13 -7
-16 -16 -4 -9 -9 -15 -11 -12 -10 10 7 38 24 39 12 0 11 2 -4 8 -16 7 -12 10
25 19 63 14 64 14 50 -3z m80 -43 c-5 -2 -10 -8 -10 -14 0 -5 8 -7 18 -4 19 6
45 -24 34 -40 -4 -6 -28 -29 -54 -53 l-46 -42 -41 43 c-22 24 -41 53 -41 64 0
14 18 37 48 62 l47 41 28 -27 c15 -15 23 -28 17 -30z m217 52 c-3 -4 -2 -15 4
-26 6 -11 8 -22 6 -25 -8 -8 -29 36 -22 47 3 6 9 10 12 10 4 0 3 -3 0 -6z m46
-22 c-6 -14 -25 -12 -30 4 -2 5 5 10 16 10 11 0 17 -5 14 -14z m-194 -34 c32
-35 37 -45 24 -51 -10 -6 -20 -2 -31 15 -9 12 -16 27 -14 31 1 5 -2 6 -6 3 -5
-3 -17 3 -26 13 -17 18 -16 20 11 30 1 1 20 -18 42 -41z m2371 28 c0 -2 -8
-10 -17 -17 -16 -13 -17 -12 -4 4 13 16 21 21 21 13z m-2203 -47 c-14 -8 -15
-14 -7 -24 9 -11 7 -12 -11 -8 -15 4 -20 3 -15 -5 10 -17 0 -15 -18 4 -9 8
-13 20 -10 26 4 6 9 6 14 -3 6 -9 12 -9 25 4 9 10 22 17 28 17 7 0 4 -5 -6
-11z m2144 -12 c-10 -9 -11 -8 -5 6 3 10 9 15 12 12 3 -3 0 -11 -7 -18z
m-2221 -3 c0 -8 -5 -12 -10 -9 -6 4 -8 11 -5 16 9 14 15 11 15 -7z m2180 -28
c0 -2 -8 -10 -17 -17 -16 -13 -17 -12 -4 4 13 16 21 21 21 13z m-2160 -16 c0
-5 -2 -10 -4 -10 -3 0 -8 5 -11 10 -3 6 -1 10 4 10 6 0 11 -4 11 -10z m1870
-3 c0 -2 -15 -16 -32 -33 l-33 -29 29 33 c28 30 36 37 36 29z m241 -30 c-10
-9 -11 -8 -5 6 3 10 9 15 12 12 3 -3 0 -11 -7 -18z m-2454 -43 c-3 -3 -12 -4
-19 -1 -8 3 -5 6 6 6 11 1 17 -2 13 -5z m274 -12 c-7 -2 -18 1 -23 6 -8 8 -4
9 13 5 13 -4 18 -8 10 -11z m2132 -7 c-3 -9 -8 -14 -10 -11 -3 3 -2 9 2 15 9
16 15 13 8 -4z m-2228 -24 c3 -5 -5 -11 -17 -13 -29 -4 -36 -28 -8 -28 19 0
20 -2 10 -15 -15 -18 -30 -20 -30 -4 0 7 -8 17 -17 24 -15 11 -13 14 13 28 36
18 41 19 49 8z m1908 -35 c-10 -13 -20 -22 -22 -20 -4 4 29 44 36 44 2 0 -4
-11 -14 -24z m263 -14 c-17 -16 -18 -16 -5 5 7 12 15 20 18 17 3 -2 -3 -12
-13 -22z"/>
<path d="M1652 2313 c-33 -16 -36 -28 -12 -53 9 -8 11 -12 6 -7 -6 4 -15 7
-20 7 -13 -1 24 -30 37 -30 11 0 -2 43 -17 52 -15 10 3 25 34 30 14 2 20 6 15
10 -6 4 -25 0 -43 -9z"/>
<path d="M1716 2322 c-3 -5 5 -14 19 -20 13 -6 25 -21 27 -34 2 -15 6 -19 11
-11 5 8 -3 24 -22 43 -16 17 -32 27 -35 22z"/>
<path d="M1575 2259 c-4 -6 -5 -12 -2 -15 2 -3 7 2 10 11 7 17 1 20 -8 4z"/>
<path d="M1407 2254 c-8 -8 1 -24 12 -24 4 0 8 7 8 15 0 16 -9 20 -20 9z"/>
<path d="M1404 2086 c-19 -15 -19 -15 0 -12 11 2 22 8 24 14 5 16 0 15 -24 -2z"/>
<path d="M1400 2044 c0 -13 -3 -14 -15 -4 -12 10 -15 9 -15 -6 0 -38 12 -65
27 -60 8 3 11 1 8 -4 -3 -6 -2 -10 3 -10 15 0 22 28 9 34 -7 3 -6 5 3 5 9 1
23 10 32 20 14 16 14 20 3 25 -8 3 -17 1 -20 -4 -4 -6 -11 -10 -16 -10 -6 0
-8 4 -4 9 3 5 1 12 -5 16 -5 3 -10 -1 -10 -11z m40 -19 c-7 -8 -17 -15 -23
-15 -6 0 -2 7 9 15 25 19 30 19 14 0z m-46 -21 c3 -8 2 -12 -4 -9 -6 3 -10 10
-10 16 0 14 7 11 14 -7z"/>
<path d="M1985 1750 c-3 -5 -11 -7 -19 -4 -7 3 -13 -1 -13 -9 0 -7 6 -14 14
-14 7 0 13 4 13 9 0 5 4 7 8 4 5 -3 9 1 9 9 0 17 -3 19 -12 5z"/>
<path d="M1920 1704 c0 -8 -4 -13 -9 -9 -5 3 -12 1 -15 -4 -12 -19 16 -23 29
-5 17 23 19 34 5 34 -5 0 -10 -7 -10 -16z"/>
<path d="M2317 1383 c-2 -5 -17 -30 -33 -57 -15 -27 -23 -47 -18 -43 16 9 74
107 64 107 -5 0 -11 -3 -13 -7z"/>
<path d="M1642 1350 c0 -19 2 -27 5 -17 2 9 2 25 0 35 -3 9 -5 1 -5 -18z"/>
<path d="M2515 1360 c-16 -4 -47 -14 -69 -24 -48 -20 -49 -20 -42 2 3 9 -4 4
-17 -12 -12 -16 -32 -41 -45 -55 l-23 -26 7 25 c3 14 13 33 22 43 8 9 12 20 9
23 -8 8 -45 -53 -54 -86 -3 -14 -12 -32 -19 -40 -10 -11 -11 -24 -5 -45 5 -17
10 -25 11 -20 10 63 26 99 40 90 5 -3 17 9 27 26 19 33 125 89 169 89 13 0 24
5 24 10 0 6 -1 10 -2 9 -2 -1 -16 -4 -33 -9z"/>
<path d="M1685 1317 c5 -50 42 -147 56 -147 4 0 -3 24 -17 54 -14 30 -29 74
-34 98 l-9 43 4 -48z"/>
<path d="M1641 1280 c0 -19 4 -42 9 -50 8 -12 10 -11 9 5 -1 11 -5 34 -9 50
l-8 30 -1 -35z"/>
<path d="M2235 1008 c4 -13 11 -36 15 -53 5 -16 13 -46 19 -65 l10 -35 -3 35
c-5 53 -30 140 -39 140 -5 0 -5 -10 -2 -22z"/>
<path d="M2420 1005 c0 -15 4 -24 10 -20 6 3 10 12 10 20 0 8 -4 17 -10 20 -6
4 -10 -5 -10 -20z"/>
<path d="M1678 898 c34 -36 62 -72 62 -79 0 -7 3 -10 6 -6 8 8 -29 68 -58 91
-13 10 -34 28 -48 40 -14 11 3 -9 38 -46z"/>
<path d="M1519 815 c29 -19 79 -59 111 -88 84 -76 210 -147 313 -177 56 -17
24 6 -46 32 -95 36 -183 89 -271 164 -87 74 -130 104 -147 104 -8 0 10 -16 40
-35z"/>
<path d="M2130 569 c0 -5 5 -7 10 -4 6 3 10 8 10 11 0 2 -4 4 -10 4 -5 0 -10
-5 -10 -11z"/>
<path d="M2000 551 c0 -12 104 -30 109 -18 5 12 1 14 -56 21 -32 4 -53 3 -53
-3z"/>
<path d="M1135 1769 c-4 -6 -5 -12 -2 -15 2 -3 7 2 10 11 7 17 1 20 -8 4z"/>
<path d="M1096 1735 c-11 -8 -15 -15 -9 -15 6 0 16 7 23 15 16 19 11 19 -14 0z"/>
<path d="M1010 1450 c0 -5 9 -14 20 -20 19 -10 20 -10 8 9 -13 22 -28 28 -28
11z"/>
<path d="M1195 1409 c-4 -6 -5 -13 -2 -16 7 -7 27 6 27 18 0 12 -17 12 -25 -2z"/>
<path d="M376 1491 c-4 -6 -2 -11 4 -11 6 0 8 -6 4 -12 -6 -10 -4 -10 7 0 9 9
10 15 2 23 -8 8 -13 8 -17 0z"/>
<path d="M783 868 c-19 -24 -24 -38 -15 -38 5 0 14 11 20 25 13 27 10 32 -5
13z"/>
<path d="M220 889 c0 -5 9 -9 20 -9 11 0 20 2 20 4 0 2 -9 6 -20 9 -11 3 -20
1 -20 -4z"/>
<path d="M286 860 c7 -38 11 -46 19 -38 3 3 -2 20 -10 39 l-16 34 7 -35z"/>
<path d="M157 763 c-3 -5 10 -8 28 -8 18 0 31 3 28 8 -2 4 -15 7 -28 7 -13 0
-26 -3 -28 -7z"/>
<path d="M386 751 c-3 -5 1 -14 9 -21 7 -6 11 -18 8 -26 -4 -11 4 -14 32 -14
30 0 35 3 26 13 -6 8 -8 17 -4 20 3 4 -1 7 -9 7 -9 0 -21 7 -28 15 -14 17 -26
19 -34 6z m54 -41 c0 -5 -5 -10 -11 -10 -5 0 -7 5 -4 10 3 6 8 10 11 10 2 0 4
-4 4 -10z"/>
<path d="M490 693 c1 -20 20 -37 29 -28 7 7 4 14 -9 23 -11 7 -20 9 -20 5z"/>
<path d="M330 689 c0 -5 5 -7 10 -4 6 3 10 8 10 11 0 2 -4 4 -10 4 -5 0 -10
-5 -10 -11z"/>
<path d="M345 397 c-25 -27 -38 -32 -72 -31 -23 1 -40 -3 -37 -7 3 -5 0 -9 -5
-9 -6 0 -11 -5 -11 -11 0 -8 4 -8 15 1 8 6 20 8 26 4 8 -5 10 -3 4 7 -5 8 5 1
21 -16 16 -16 29 -33 27 -36 -2 -5 33 -39 40 -39 1 0 3 9 3 20 0 13 -5 19 -14
15 -7 -2 -11 -1 -8 3 3 5 -4 16 -15 26 -12 10 -18 20 -15 23 3 4 12 0 19 -9
16 -20 45 -30 52 -17 4 5 10 7 14 4 5 -2 13 14 20 35 12 39 24 50 34 30 3 -6
4 -5 3 2 -2 7 -10 13 -19 13 -9 0 -22 6 -29 13 -16 16 -18 15 -53 -21z m65 -8
c0 -5 -9 -4 -19 3 -11 7 -17 16 -14 20 5 10 33 -10 33 -23z m-20 -24 c0 -20
-21 -30 -31 -14 -7 11 -9 11 -9 1 0 -7 -4 -10 -10 -7 -17 10 -11 25 13 34 25
10 37 6 37 -14z"/>
<path d="M60 201 c0 -4 9 -16 20 -26 11 -10 20 -14 20 -9 0 5 -9 17 -20 27
-11 9 -20 13 -20 8z"/>
<path d="M275 100 c-3 -5 -2 -10 4 -10 5 0 13 5 16 10 3 6 2 10 -4 10 -5 0
-13 -4 -16 -10z"/>
<path d="M110 59 c0 -5 5 -7 10 -4 6 3 10 8 10 11 0 2 -4 4 -10 4 -5 0 -10 -5
-10 -11z"/>
<path d="M2660 2930 c0 -5 5 -10 11 -10 5 0 7 5 4 10 -3 6 -8 10 -11 10 -2 0
-4 -4 -4 -10z"/>
<path d="M790 2800 c0 -5 5 -10 10 -10 6 0 10 5 10 10 0 6 -4 10 -10 10 -5 0
-10 -4 -10 -10z"/>
<path d="M780 2760 c0 -11 2 -20 4 -20 2 0 6 9 9 20 3 11 1 20 -4 20 -5 0 -9
-9 -9 -20z"/>
<path d="M781 2674 c0 -11 3 -14 6 -6 3 7 2 16 -1 19 -3 4 -6 -2 -5 -13z"/>
<path d="M770 2643 c0 -4 5 -15 10 -23 8 -13 10 -13 10 2 0 9 -4 20 -10 23 -5
3 -10 3 -10 -2z"/>
<path d="M750 2433 c0 -4 5 -15 10 -23 8 -13 10 -13 10 2 0 9 -4 20 -10 23 -5
3 -10 3 -10 -2z"/>
<path d="M756 2377 c3 -10 9 -15 12 -12 3 3 0 11 -7 18 -10 9 -11 8 -5 -6z"/>
<path d="M740 2292 c0 -12 4 -22 9 -22 10 0 9 26 -2 36 -4 4 -7 -2 -7 -14z"/>
<path d="M740 2220 c-9 -6 -10 -10 -3 -10 6 0 15 5 18 10 8 12 4 12 -15 0z"/>
<path d="M185 2005 c-16 -8 -23 -14 -15 -14 8 0 29 6 45 14 17 7 23 13 15 13
-8 0 -28 -6 -45 -13z"/>
<path d="M493 1895 c-3 -9 -3 -18 -1 -21 3 -3 8 4 11 16 6 23 -1 27 -10 5z"/>
<path d="M381 1865 c0 -11 4 -29 9 -40 l9 -20 0 20 c0 11 -4 29 -9 40 l-9 20
0 -20z"/>
<path d="M2950 1820 c6 -11 13 -20 15 -20 3 0 5 9 5 20 0 11 -7 20 -15 20 -13
0 -14 -4 -5 -20z"/>
<path d="M80 1476 c0 -2 8 -10 18 -17 15 -13 16 -12 3 4 -13 16 -21 21 -21 13z"/>
<path d="M1251 1280 c-14 -12 -18 -20 -10 -20 8 0 20 9 27 20 15 25 13 25 -17
0z"/>
<path d="M1160 1070 c0 -5 5 -10 10 -10 6 0 10 5 10 10 0 6 -4 10 -10 10 -5 0
-10 -4 -10 -10z"/>
<path d="M79 966 c13 -16 54 -29 45 -15 -3 5 -12 9 -20 9 -8 0 -14 5 -14 10 0
6 -5 10 -11 10 -8 0 -8 -4 0 -14z"/>
<path d="M13 773 c-7 -2 -13 -8 -13 -12 0 -12 40 -8 41 4 1 11 -11 15 -28 8z"/>
<path d="M814 628 l-19 -23 23 19 c21 18 27 26 19 26 -2 0 -12 -10 -23 -22z"/>
<path d="M0 324 c0 -32 4 -44 12 -42 20 7 22 74 4 81 -13 5 -16 -2 -16 -39z"/>
<path d="M507 243 c-4 -3 -7 -11 -7 -17 0 -6 5 -5 12 2 6 6 9 14 7 17 -3 3 -9
2 -12 -2z"/>
</g>
</svg>
